<svg height="585" viewBox="0 0 1075 585" width="1075" xmlns="http://www.w3.org/2000/svg"><g fill="none" fill-rule="evenodd"><ellipse cx="540.643" cy="549.309" fill="#f2f2f2" fill-rule="nonzero" rx="527.5" ry="34.922"/><path d="m520.426 167.01c-85.944 0-147.651 55.14-147.651 183.798 0 145.813 61.707 184.41 147.65 184.41s151.328-42.273 151.328-184.41c0-151.94-65.383-183.798-151.327-183.798zm.565 319.808c-59.527 0-90.626-34.923-90.626-135.916 0-89.112 32.372-136.105 91.899-136.105s91.899 30.868 91.899 136.105c0 98.447-33.646 135.916-93.172 135.916z" fill="#2f2e41" fill-rule="nonzero"/><path d="m321.311 433.517h-35.534v-104.64c0-11.573679-9.382321-20.956-20.956-20.956h-8.326c-11.573679 0-20.956 9.382321-20.956 20.956v104.64h-100.23c-4.194105.000292-8.082061-2.195828-10.246949-5.788011s-2.290497-8.055743-.331051-11.763989l106.083-200.78c2.672933-5.058443 3.16149-10.989796 1.35228-16.417427-1.80921-5.42763-5.758868-9.879579-10.93228-12.322573l-6.263-2.957c-10.099409-4.76946-22.164649-.779969-27.43 9.07l-129.379 242.033c-2.2035636 4.121338-3.357 8.722551-3.357 13.396 0 15.693723 12.7222765 28.416 28.416 28.416h152.319v66.167c-.000265 6.662146 2.646076 13.051519 7.356831 17.762462 4.710755 4.710942 11.100023 7.357538 17.762169 7.357538s13.051414-2.646596 17.762169-7.357538c4.710755-4.710943 7.357096-11.100316 7.356831-17.762462v-66.167h35.534c11.842642 0 21.443-9.600358 21.443-21.443s-9.600358-21.443-21.443-21.443zm657.997 0h-35.534v-104.64c0-11.573679-9.382321-20.956-20.956-20.956h-8.327c-11.573679 0-20.956 9.382321-20.956 20.956v104.64h-100.23c-4.193927-.000058-8.081561-2.196319-10.246207-5.788439-2.164646-3.592121-2.290156-8.055473-.330793-11.763561l106.082-200.78c2.672933-5.058443 3.16149-10.989796 1.35228-16.417427-1.80921-5.42763-5.758868-9.879579-10.93228-12.322573l-6.263-2.957c-10.099152-4.768818-22.163687-.779415-27.429 9.07l-129.381 242.033c-2.203216 4.121428-3.356 8.722636-3.356 13.396 0 15.693723 12.722277 28.416 28.416 28.416h152.318v66.167c-.000265 6.66232 2.646213 13.051844 7.357185 17.762815 4.710971 4.710972 11.100495 7.357185 17.762815 7.357185 6.661973 0 13.050984-2.646978 17.761522-7.357892 4.710539-4.710914 7.356743-11.100135 7.356478-17.762108v-66.167h35.535c11.842642 0 21.443-9.600358 21.443-21.443s-9.600358-21.443-21.443-21.443z" fill="#3eb0ef" fill-rule="nonzero"/><path d="m331.114 421.264h-35.534v-104.64c0-11.573679-9.382321-20.956-20.956-20.956h-8.327c-11.573679 0-20.956 9.382321-20.956 20.956v104.64h-100.23c-4.193927-.000058-8.081561-2.196319-10.246207-5.788439-2.164646-3.592121-2.290156-8.055473-.330793-11.763561l106.082-200.78c2.672933-5.058443 3.16149-10.989796 1.35228-16.417427-1.80921-5.42763-5.758868-9.879579-10.93228-12.322573l-6.263-2.957c-10.099152-4.768818-22.163687-.779415-27.429 9.07l-129.381 242.033c-2.203216 4.121428-3.356 8.722636-3.356 13.396 0 15.693723 12.7222765 28.416 28.416 28.416h152.317v66.167c0 6.662146 2.646596 13.051414 7.357538 17.762169 4.710943 4.710755 11.100316 7.356831 17.762462 7.356831s13.051414-2.646596 17.762169-7.357538c4.710755-4.710943 7.357096-11.100316 7.356831-17.762462v-66.166h35.534c11.842642 0 21.443-9.600358 21.443-21.443s-9.600358-21.443-21.443-21.443zm666.574 0h-35.535v-104.64c0-11.573679-9.382321-20.956-20.956-20.956h-8.326c-11.573679 0-20.956 9.382321-20.956 20.956v104.64h-100.23c-4.193927-.000058-8.081561-2.196319-10.246207-5.788439-2.164646-3.592121-2.290156-8.055473-.330793-11.763561l106.082-200.78c2.672933-5.058443 3.16149-10.989796 1.35228-16.417427-1.80921-5.42763-5.758868-9.879579-10.93228-12.322573l-6.263-2.957c-10.099409-4.76946-22.164649-.779969-27.43 9.07l-129.38 242.033c-2.203216 4.121428-3.356 8.722636-3.356 13.396 0 15.693333 12.721667 28.415448 28.415 28.416h152.32v66.167c0 13.87245 11.24555 25.119 25.118 25.119 6.66232 0 13.051844-2.646213 17.762815-7.357185 4.710972-4.710971 7.35745-11.100495 7.357185-17.762815v-66.166h35.534c11.84264 0 21.443-9.600358 21.443-21.443s-9.60036-21.443-21.443-21.443zm-457.658-265.282c-85.943 0-147.65 55.14-147.65 183.798 0 145.813 61.707 184.41 147.65 184.41s151.328-42.273 151.328-184.41c0-151.94-65.383-183.798-151.327-183.798zm.566 319.808c-59.527 0-90.626-34.923-90.626-135.916 0-89.112 32.372-136.105 91.899-136.105s91.899 30.868 91.899 136.105c0 98.447-33.645 135.916-93.172 135.916z" stroke="#3f3d56"/><g fill-rule="nonzero"><circle cx="471.141" cy="18.25" fill="#2f2e41" r="12.901"/><ellipse cx="502.607" cy="46.885" fill="#2f2e41" rx="36.186" ry="46.885"/><path d="m502.607 79.61c-18.127 0-33.14-17.27-35.775-39.805-.273908 2.3500471-.410806 4.7140443-.410004 7.08 0 25.893 16.200004 46.885 36.185004 46.885s36.187004-20.991 36.187004-46.885c.000802-2.3659557-.136096-4.7299529-.410004-7.08-2.635 22.534-17.649 39.805-35.777 39.805z" fill="#000" opacity=".1"/><path d="m576.242 184.189c-.777 3.193-4.128 5.75-7.839 7.538-7.801 3.756-17.425 4.878-26.76 5.254-2.381084.144685-4.769887.100547-7.144-.132-4.60078-.445281-8.916818-2.429602-12.25-5.632-.483784-.314927-.772-.856178-.763463-1.43337.008923-.577191.313376-1.109478.806463-1.40963 4.97-5.46 13.263-8.806 21.617-11.217 6.334-1.827 17.38-6.56 24.29-5.922 6.691.62 9.024 8.922 8.043 12.954z" fill="#3f3d56"/><path d="m576.242 184.189c-.777 3.193-4.128 5.75-7.839 7.538-7.801 3.756-17.425 4.878-26.76 5.254-2.381084.144685-4.769887.100547-7.144-.132-4.60078-.445281-8.916818-2.429602-12.25-5.632-.483784-.314927-.772-.856178-.763463-1.43337.008923-.577191.313376-1.109478.806463-1.40963 4.97-5.46 13.263-8.806 21.617-11.217 6.334-1.827 17.38-6.56 24.29-5.922 6.691.62 9.024 8.922 8.043 12.954z" fill="#000" opacity=".1"/><path d="m477.044 160.321c-2.381699 4.667529-2.812953 10.089674-1.199 15.075 1.64184 4.947663 4.714871 9.296888 8.83 12.497 10.094 8.092 23.987 9.205 36.924 9.093 11.337865-.098716 22.659705-.874766 33.905-2.324 3.768545-.33377 7.471813-1.193445 11.002-2.554 4.222-1.827 7.933-5.178 9.436-9.526s.436-9.673-3.134-12.574c-3.137-2.55-7.463-2.9-11.498-3.143l-23.087-1.388c2.28-2.308 5.318-3.614 8.095-5.292 3.686-2.226 6.134-5.965 8.814-9.335 4.128518-4.93432 8.620386-9.552874 13.438-13.817.752 4.31 3.478 7.85 6.688 10.824s6.908 5.369 10.243 8.2c8.079 6.859 13.896 16.167 22.393 22.5 5.844378-1.535509 11.308103-4.262945 16.048-8.011l-3.302-5.982c-.274966-.615574-.703292-1.150293-1.244-1.553-.935-.575-2.14-.278-3.225-.441-2.901-.435-4.168-3.784-5.306-6.487-3.125-7.422-9.108-13.18-14.218-19.404-3.771575-4.594387-7.117364-9.522363-9.996-14.723-1.717-3.102-3.288-6.331-5.618-9.003s-5.593-4.773-9.138-4.780023c-3.132-.006977-6.021 1.583023-8.714 3.182023-8.202296 4.872425-16.094146 10.249437-23.63 16.1-3.944 3.061-7.864 6.296-12.49 8.173-1.947.79-4 1.33-5.869 2.292-3.273 1.685-5.757 4.535-8.431 7.065-9.538 9.023-22.596 14.869-35.717 15.336z" fill="#3f3d56"/><path d="m525.32 96.098c-.107311 2.758022-.694075 5.476292-1.734 8.033-1.065464 2.577963-3.154932 4.596792-5.768 5.573-1.835425.4919-3.759475.554519-5.623.183-1.624815-.169873-3.190532-.7034-4.581-1.561-2.165-1.489-3.245-4.144-3.638-6.743-.393-2.596-.217-5.249-.469-7.864-.245278-2.1118797-.647049-4.202629-1.202-6.255-.17-.683-.343-1.363-.513-2.042-.166-.68-.33-1.36-.481-2.04-.140198-.6387969-.266229-1.280621-.378-1.925-.093478-.5453077-.171177-1.0932031-.233-1.643-.05488-1.6323937-.326595-3.2502407-.808-4.811-.4522-1.0122729-1.018178-1.9697719-1.687-2.854-.286-.409-.563-.818-.818-1.243-.737121-1.1040941-1.079638-2.4248274-.972-3.748.030375-.2042052.079928-.4050933.148-.6.025-.076.053-.152.085-.224.574674-.1562234 1.035051-.586283 1.23-1.149.108047-.5950296.056991-1.2080422-.148-1.777-.235181-.7955446-.557115-1.5628208-.96-2.288-.264-.478-1.16-1.34-1.167059-1.888-.012941-1.101 2.140059-1.989 3.011059-2.423 2.660679-1.3322683 5.62753-1.9337829 8.597-1.743 1.904.129 3.968.714 5.019 2.31.944 1.438.818 3.3 1.22 4.971.042693.2430021.145862.4713497.3.664.205458.1873027.464052.3061164.74.34.465801.0927345.943249.1119674 1.415.057h.003c.124692-.0100642.248612-.0281011.371-.054.735205-.1356148 1.430213-.4357707 2.033-.878.390667-.104.784-.189 1.18-.255.01595-.0018226.031689-.0051713.047-.01 1.577 4.976 1.781 10.31 3.072 15.375.638 2.52 1.554 5.01 1.683 7.603.01.113.013.23.016.346.019.834-.047 1.674-.013 2.504.012067.3741108.054203.7466451.126 1.114.14091.5910551.316209 1.1733792.525 1.744l.01.028c.06.182.116.368.164.554.034.135.066.267.09.402l.004.01c.233013 1.3903999.268027 2.8067849.104 4.207z" fill="#fbbebe"/><circle cx="503.237" cy="44.997" fill="#fbbebe" r="18.565"/><path d="m621.103 146.148c-.538129-5.064981-2.338421-9.914008-5.236-14.103.481333 2.863333.964 5.725667 1.448 8.587-1.228294.355507-2.550486-.050929-3.367-1.035-.782017-.976164-1.38038-2.08615-1.766-3.276-2.109465-5.235784-4.867684-10.186132-8.21-14.735-11.818-.985-23.501-5.884-33.895-11.596-10.396-5.708-20.125-12.552-30.383-18.502-1.778436-1.0750194-3.631499-2.0214349-5.545-2.832-3.21-1.287-6.812-1.954-9.855-3.467-.205-.101-.41-.208-.61-.318-.687552-.3738742-1.33871-.8111037-1.945-1.306-.327502-.266077-.638417-.5519445-.931-.856-1.518577-1.7659964-2.72273-3.77957-3.56-5.953-1.632-3.613-2.215-7.97-3.845-11.583.749292-.7000683 1.591153-1.293947 2.502-1.765h.003c.132-.07.265-.136.4-.199.644785-.3036538 1.315462-.5489665 2.004-.733.390667-.104.784-.189 1.18-.255.01595-.0018226.031689-.0051713.047-.01 1.838656-.2993155 3.722406-.1502748 5.491.435 2.587.875 4.767 2.621 6.942 4.273 3.532476 2.4888674 6.920609 5.1765366 10.148 8.05 1.793 1.717 3.43 3.605 5.358 5.166 1.602979 1.2370305 3.293023 2.3569312 5.057 3.351 10.437333 6.218 20.875667 12.4346667 31.315 18.65 3.534 2.105 7.07 4.21 10.526 6.438 5.248 3.386 10.308 7.055 15.365 10.72 2.98 2.159333 5.958667 4.319333 8.936 6.48.976948.62293 1.834757 1.415378 2.533 2.34.616895 1.050604.999937 2.221901 1.123 3.434.747549 4.895552.326066 9.89852-1.23 14.6z" fill="#fbbebe"/><path d="m529.923 110.06c-1.252 5.616-6.929 9.012-9.896 13.945-3.688 6.124-2.184 13.241-.8 20.255-2.529333 2.180667-5.06 4.361333-7.592 6.542-1.397 1.199-2.794 2.404-4.298 3.465-2.193251 1.469669-4.48537 2.786134-6.86 3.94-2.24 1.151333-4.480333 2.303667-6.721 3.457-2.082831 1.171134-4.289813 2.106251-6.58 2.788-4.414 1.133-9.103.34-13.47-.972-.515174-.135042-1.010401-.3371-1.473-.601-.272664-.162569-.510273-.377742-.699-.633-.430378-.771942-.586533-1.666923-.443-2.539.443-7.35 2.24-14.547 4.03-21.69.957235-4.285189 2.244063-8.490031 3.849-12.577 1.573923-3.501634 3.383058-6.892718 5.415-10.15 2.242941-4.098895 4.900163-7.957062 7.93-11.514 1.474862-1.369029 2.716205-2.96977 3.675-4.739 1.117-2.549.686-5.472.913-8.247.173291-2.0851926.726741-4.1210644 1.633-6.007v-.003c.484648-1.0160511 1.068483-1.9817403 1.743-2.883l.916 2.13c.201333.4666667.400333.9316667.597 1.395.258.5973333.514 1.193.768 1.787l2.197 5.113c.789942 2.145412 1.915632 4.1517396 3.335 5.944 1.320317 1.866248 3.523951 2.901705 5.803328 2.726904 2.279378-.1748 4.299358-1.5341581 5.319672-3.579904 1.057697-1.8776048 1.823783-3.9051045 2.272-6.013.621502-2.5666026.707287-5.2337642.252-7.835-.758-5.01-2.889-10.126-4.437-14.78-.630288-1.5513655-.995372-3.1976258-1.08-4.87.003261-.1879349.022328-.3752623.057-.56l.029-.146c.644785-.3036538 1.315462-.5489665 2.004-.733.39-.1033333.783333-.1883333 1.18-.255 1.362667 7.376 2.727333 14.752 4.094 22.128.031.173.066.346.097.522.196 1.057.394 2.114.614 3.169.198.956.412 1.91.651 2.857l.01.028c.082.321.167.639.255.957l.003.009c.242.868.513 1.73.818 2.58 1.85 5.12 5.076 10.274 3.89 15.589z" fill="#fff"/><path d="m605.267 188.993c-.058414 1.081902.151116 2.161496.61 3.143 1.162 2.123 3.95 2.606 6.363 2.805 14.092024 1.158229 28.269653.726174 42.265-1.288.759581-.051959 1.496509-.280708 2.152-.668 1.99-1.395.763-4.795-1.41-5.883s-4.751-.826-7.135-1.298c-2.368542-.596147-4.624103-1.5743-6.678-2.896-4.834667-2.778-9.599-5.674-14.293-8.688-2.794-1.795-6.093-3.71-9.24-2.646-8.525 2.884-12.69 8.222-12.634 17.419z" fill="#3f3d56"/><path d="m501.383 82.99v.002c-.020669.1305929-.044677.2606355-.072.39-.035.215-.076.432-.116.646-.394749 2.0052331-.868451 3.9941129-1.42 5.962-1.51 5.46-3.533 10.831-5.54 16.124l-16.165 42.576c-1.36 3.574-2.716 7.152-4.26 10.654-.517 1.168-1.048 2.344-1.577 3.534-1.894 4.257-3.713 8.653-4.317 13.184-.563269 2.982003-.628149 6.03677-.192 9.04.604 2.97 2.407 5.872 5.23 6.97 1.378.538 3.35 1.259 2.973 2.69-.204.787-1.098 1.171-1.9 1.303-2.145131.341937-4.331244-.287587-5.966-1.718-1.508-1.337-2.666-3.417-4.67-3.64-1.388-.151-2.665.68-3.936 1.261-5.186 2.37-11.228.712-16.674-.972.427-2.206 2.643-3.66 4.842-4.1 2.2-.444 4.475-.129 6.718-.189.718385.0384 1.431219-.144871 2.042-.525.547831-.502564.931803-1.158313 1.102-1.882 1.444876-4.282013 2.519487-8.68016 3.212-13.146.724-4.667 1.026-9.406 2.058-14.016.803-3.596 2.042-7.08 3.106-10.61 2.056748-7.269252 3.74556-14.637612 5.06-22.077.664325-3.090581 1.140202-6.218681 1.425-9.367.18-2.612.095-5.236.346-7.839.422717-3.385284 1.129204-6.729052 2.112-9.996l2.885-10.69c1.426-5.27 2.955-10.745 6.567-14.842 2.536066-2.9157651 6.167171-4.6500347 10.029-4.7900054.716237 0 1.430433.0763751 2.13.2300054.116.029.233.057.349.089.762341.1993891 1.493798.5022002 2.174.9 1.114-.709 1.68-.46 2.42.632.648267 1.1556027.953863 2.4719888.881 3.795.062261 3.4915117-.224497 6.9805082-.856 10.415z" fill="#fbbebe"/><path d="m502.607 87.162-.047.047-.255.255-2.53 2.526-1.24-5.207-4.25-17.854c.716237-.00075 1.430433.0763697 2.13.23.030252-.2048822.079806-.4064456.148-.602l.201.69 1.441 4.902 2.728 9.308.45 1.532z" fill="#fff"/><path d="m518.661 30.203c-.004145 3.3387988-1.335183 6.5390455-3.7 8.896-.424072.4246156-.878617.8176629-1.36 1.176-2.171492 1.6369268-4.816642 2.5228555-7.536 2.524h-15.096c-6.953265 0-12.59-5.636735-12.59-12.59s5.636735-12.59 12.59-12.59h15.096c6.94416.0186478 12.570733 5.6398608 12.596 12.584z" fill="#2f2e41"/><circle cx="532.815" cy="18.25" fill="#2f2e41" r="12.901"/><path d="m532.5 5.35c-.158 0-.315.006-.472.011 6.936598.2519559 12.429819 5.9483277 12.429819 12.8895s-5.493221 12.6375441-12.429819 12.8895c.157.005.314.012.472.012 7.125302 0 12.9015-5.7761983 12.9015-12.9015s-5.776198-12.9015-12.9015-12.9015zm-61.359 0c.158 0 .315.006.472.011-6.936598.2519559-12.429819 5.9483277-12.429819 12.8895s5.493221 12.6375441 12.429819 12.8895c-.157.005-.314.012-.472.012-7.125302 0-12.9015-5.7761983-12.9015-12.9015s5.776198-12.9015 12.9015-12.9015zm42.459 34.925c-2.171219 1.636721-4.815984 2.5226385-7.535 2.524h-15.096c-2.719358-.0011445-5.364508-.8870732-7.536-2.524z" fill="#000" opacity=".1"/><path d="m611.086 133.756s3.252 9.372 6.229 6.876l-2.373-12.25z" fill="#fbbebe"/><path d="m1006.864 419.55c8.30729 3.020027 17.61599.463414 23.21539-6.376054 5.5994-6.839467 6.26794-16.469689 1.66729-24.017252-4.60064-7.547562-13.46678-11.365887-22.11168-9.522694l.521 10.713-5.068-9.18c-4.97373 2.337183-8.816156 6.553318-10.683 11.722-.663313 1.810643-1.066657 3.706159-1.198 5.63-.65664 9.273724 4.91796 17.857883 13.657 21.03z" fill="#3eb0ef"/></g><path d="m1031.941 543.793c-1.789-9.11 5.963-17.187 13.621-22.436s16.605-10.408 19.218-19.317c3.755-12.804-7.43-24.53-16.136-34.642-6.45852-7.504126-12.00488-15.747289-16.523-24.557-1.812-3.533-3.476-7.226-3.953-11.167-.686-5.675 1.137-11.323 2.974-16.736 6.12-18.034667 12.663-35.918 19.629-53.65" stroke="#3f3d56"/><path d="m1007.72 416.792c8.30712 3.02032 17.61585.464117 23.21552-6.375047 5.59968-6.839163 6.26869-16.469274 1.66849-24.017032-4.60021-7.547758-13.46606-11.366565-22.11101-9.523921l.52 10.713-5.068-9.18c-4.97373 2.337183-8.816156 6.553318-10.683 11.722-.662971 1.810693-1.065979 3.706208-1.197 5.63-.65678 9.273461 4.917356 17.857534 13.656 21.03z" stroke="#3f3d56"/><path d="m1029.397 357.588c2.41607-6.66575 8.06287-11.640437 14.98-13.197l1.714 10.183 3.177-10.695c9.05109.133903 16.97745 6.103463 19.6057 14.765594 2.62825 8.66213-.64454 18.029717-8.09518 23.170547-7.45064 5.140831-17.36994 4.875585-24.5352-.656079-7.16525-5.531665-9.93274-15.06077-6.84532-23.570062z" fill="#3eb0ef" fill-rule="nonzero"/><path d="m1030.54 353.91c2.41607-6.66575 8.06287-11.640437 14.98-13.197l1.714 10.184 3.177-10.696c9.05109.133903 16.97745 6.103463 19.6057 14.765594 2.62825 8.66213-.64454 18.029717-8.09518 23.170547-7.45064 5.140831-17.36994 4.875585-24.5352-.656079-7.16525-5.531665-9.93274-15.06077-6.84532-23.570062z" stroke="#3f3d56"/><path d="m1044.99 467.604c9.94542 3.607539 21.01473-.821025 25.72739-10.292905s1.56862-20.972182-7.30739-26.729095l-2.441 8.219-1.732-10.304c-.01712-.008041-.03484-.014728-.053-.02-6.99781-2.569996-14.83575-1.20065-20.54763 3.58982s-8.42511 12.270238-7.11288 19.608646c1.31223 7.338407 6.44945 13.414387 13.46751 15.928534z" fill="#3eb0ef" fill-rule="nonzero"/><path d="m1045.981 463.88c9.9459 3.608423 21.01623-.820352 25.72892-10.293063s1.56746-20.973746-7.30992-26.729937l-2.441 8.22-1.731-10.305c-.01712-.008041-.03484-.014728-.053-.02-10.8049-3.919565-22.74144 1.662101-26.661 12.467s1.6621 22.741435 12.467 26.661z" stroke="#3f3d56"/><path d="m1023.324 502.167c1.70263 9.687022 9.95742 16.857565 19.78737 17.188357s18.54811-6.268587 20.89812-15.819231c2.35-9.550644-2.3105-19.441945-11.1716-23.710227-8.8611-4.268283-19.50067-1.746838-25.50389 6.044101l9.273 13.956-12.67-7.408c-.98238 3.153635-1.19261 6.49715-.613 9.749z" fill="#3eb0ef" fill-rule="nonzero"/><path d="m1024.18 499.409c1.70162 9.687149 9.9556 16.858527 19.78546 17.190393 9.82987.331867 18.54872-6.266492 20.89982-15.816817 2.3511-9.550324-2.3082-19.442121-11.16873-23.711463-8.86054-4.269342-19.50036-1.749243-25.50455 6.040887l9.272 13.956-12.67-7.407c-.98221 3.153322-1.19245 6.496474-.613 9.748z" stroke="#3f3d56"/><path d="m9.007 470.249c5.457724 1.983799 11.5731662.304032 15.2517747-4.189302 3.6786086-4.493334 4.1179199-10.820044 1.0956325-15.778672-3.0222874-4.958627-8.846882-7.467482-14.5264072-6.257026l.343 7.038-3.33-6.032c-3.26829499 1.53548-5.79325684 4.305744-7.02 7.702-.43551412 1.189998-.70014647 2.435723-.786 3.7-.43147023 6.092726 3.23070625 11.732527 8.972 13.817z" fill="#3eb0ef" fill-rule="nonzero"/><path d="m25.484 551.879c-1.176-5.986 3.918-11.292 8.949-14.741s10.91-6.838 12.626-12.692c2.467-8.412-4.881-16.116-10.601-22.76-4.2434414-4.930529-7.8875273-10.346642-10.856-16.135-1.2906665-2.273435-2.169826-4.756882-2.597-7.336-.451-3.729.747-7.44 1.954-10.996 4.02-11.849333 8.3186667-23.599333 12.896-35.25" stroke="#3f3d56"/><path d="m24.8218421 464.248201c3.6787459-4.493181 4.1182946-10.819836 1.0962265-15.778561-3.022068-4.958726-8.8465164-7.467822-14.5260686-6.25764l.342 7.038-3.33-6.032c-3.26829499 1.53548-5.79325684 4.305744-7.02 7.702-.43540894 1.189683-.70003952 2.435063-.786 3.699-.43179309 6.093348 3.23093288 11.733774 8.973 13.818 5.456638 1.983946 11.5720963.304383 15.2508421-4.188799z" stroke="#3f3d56"/><path d="m23.812 429.539c1.587268-4.379623 5.2972838-7.648222 9.842-8.671l1.126 6.69 2.088-7.026c5.9469301.088406 11.154588 4.011029 12.8810371 9.702529 1.7264492 5.691499-.4243632 11.846227-5.3199914 15.223596-4.8956282 3.377368-11.4129993 3.202598-16.1205865-.432291-4.7075872-3.634888-6.5254549-9.896041-4.4964592-15.486834z" fill="#3eb0ef" fill-rule="nonzero"/><path d="m24.563 427.123c1.587268-4.379623 5.2972838-7.648222 9.842-8.671l1.126 6.69 2.088-7.027c5.9468682.088248 11.1545894 4.010651 12.8812427 9.702022 1.7266533 5.69137-.423852 11.846119-5.3192521 15.223705-4.8954 3.377586-11.4126996 3.203198-16.1204709-.431347-4.7077712-3.634545-6.5260608-9.89549-4.4975197-15.48638z" stroke="#3eb056"/><path d="m34.058 501.822c6.5341101 2.368099 13.8051679-.542279 16.9007098-6.764827 3.0955419-6.222549 1.030601-13.777322-4.7997098-17.560173l-1.604 5.4-1.137-6.77c-.0113082-.005243-.0230109-.00959-.035-.013-7.0990682-2.575028-14.9414724 1.092432-17.5165 8.1915s1.0924318 14.941472 8.1915 17.5165z" fill="#3eb0ef" fill-rule="nonzero"/><path d="m34.708 499.374c6.5336259 2.367219 13.8036717-.542947 16.8991844-6.764667s1.0317592-13.775762-4.7971844-17.559333l-1.604 5.4-1.137-6.77c-.0113082-.005243-.0230109-.00959-.035-.013-4.5921133-1.66593-9.7241639-.755449-13.4629579 2.388473s-5.5163196 8.043649-4.6630001 12.853501c.8533195 4.809851 4.2078446 8.799097 8.799958 10.465026z" stroke="#3f3d56"/><path d="m19.822 524.53c1.1186522 6.36469 6.5422643 11.076008 13.0008543 11.293427 6.45859.217418 12.1867633-4.118492 13.7309132-10.393543 1.54415-6.27505-1.5178022-12.774014-7.339757-15.578564-5.8219548-2.804549-12.8125357-1.148087-16.7570105 3.97068l6.092 9.17-8.324-4.867c-.6454816 2.07189-.7836942 4.268543-.403 6.405z" fill="#3eb0ef" fill-rule="nonzero"/><path d="m20.385 522.718c1.1186522 6.36469 6.5422643 11.076008 13.0008543 11.293427 6.45859.217418 12.1867633-4.118492 13.7309132-10.393543 1.54415-6.27505-1.5178022-12.774014-7.339757-15.578564-5.8219548-2.804549-12.8125357-1.148087-16.7570105 3.97068l6.092 9.17-8.324-4.867c-.6454816 2.07189-.7836942 4.268543-.403 6.405z" stroke="#3f3d56"/><ellipse cx="480.946" cy="319.115" fill="#2f2e41" fill-rule="nonzero" rx="17" ry="22"/><ellipse cx="573.446" cy="319.615" fill="#2f2e41" fill-rule="nonzero" rx="17" ry="22"/><path d="m560.446 384.615c0 9.94-13.88 18-31 18s-31-8.06-31-18c0-8.61 10.41-15.81 24.32-17.57 2.214592-.292079 4.446238-.435733 6.68-.430264 3.742922-.011808 7.47567.390645 11.13 1.200264 11.62 2.59 19.87 9.14 19.87 16.8z" fill="#2f2e41" fill-rule="nonzero"/><ellipse cx="484.946" cy="314.115" rx="17" ry="22" stroke="#3f3d56"/><ellipse cx="577.446" cy="314.615" rx="17" ry="22" stroke="#3f3d56"/><ellipse cx="533.446" cy="379.615" rx="31" ry="18" stroke="#3f3d56"/><path d="m540.946102 369.316c.007957 1.257516-.464159 2.470712-1.320102 3.392-.817495.891818-1.970202 1.401836-3.18 1.407h-10c-2.565279-.08912-4.576395-2.234311-4.5-4.8-.004927-.974512.280544-1.928405.82-2.74 2.212906-.311883 4.445231-.465606 6.68-.46 3.747418-.012339 7.483216.417295 11.13 1.28.246821.609907.372494 1.262048.370102 1.92z" fill="#fff" fill-rule="nonzero"/><circle cx="484.946" cy="308.115" fill="#fff" fill-rule="nonzero" r="5"/><circle cx="577.946" cy="308.115" fill="#fff" fill-rule="nonzero" r="5"/><circle cx="582.946" cy="355.115" fill="#3eb0ef" fill-rule="nonzero" opacity=".3" r="5"/><circle cx="460.946" cy="355.115" fill="#3eb0ef" fill-rule="nonzero" opacity=".3" r="5"/></g></svg>