<svg fill="none" height="448" viewBox="0 0 448 448" width="448" xmlns="http://www.w3.org/2000/svg"><path clip-rule="evenodd" d="m189.695 14.3458-123.671 50.8459-35.0976 84.1073 94.5736 111.043 97.934-194.3612zm-189.695 209.0652 28.7802-68.969 94.2938 110.714-58.3222 115.749zm68.9799 160.144 57.5901-114.294 42.541 49.949-54.516 83.38zm50.2791 20.981 53.21-81.383 91.965 107.979-41.023 16.866zm56.045-85.718 93.964 110.327 67.678-27.825 45.979-91.252-100.919-154.448zm210.763-3.943-42.104 83.56 38.011-15.628 18.895-45.278zm2.584-5.128 51.961-103.124 7.386 17.965-44.816 107.397zm49.461-109.205-52.603 104.397-100.534-153.859 64.661-98.8978 33.171 13.8418zm-309.116 63.904 42.949 50.429 107.094-163.796-52.463-80.2907zm153.011-117.907-52.847-80.8793 26.542-52.6759 89.27 37.2521zm-55.989-85.6868-31.645-48.4299 30.215-12.4223 26.517 11.0654z" fill="#2a4365" fill-opacity=".2" fill-rule="evenodd"/></svg>