<svg height="391" viewBox="0 0 515 391" width="515" xmlns="http://www.w3.org/2000/svg"><g fill="none"><path d="m248.976634 345.871524c-111.045016-8.440035-243.47136201-94.374983-236.7293397-182.85907 6.7420223-88.4840882 134.9983657-170.85537427 246.0433767-162.4153525 111.045012 8.44002178 174.96632 173.8018915 168.224298 262.2859665-6.742023 88.484074-66.493323 91.428492-177.538335 82.988456z" fill="#f2f2f2"/><ellipse cx="259.5" cy="344.5" fill="#3f3d56" rx="231.5" ry="14.5"/><ellipse cx="258.5" cy="345" fill="#000" opacity=".1" rx="196.5" ry="9"/><ellipse cx="97" cy="382.5" fill="#3f3d56" rx="97" ry="8.5"/><ellipse cx="97.5" cy="382" fill="#000" opacity=".1" rx="82.5" ry="5"/><path d="m91 75h344v269h-344z" fill="#3f3d56"/><g fill="#f2f2f2"><path d="m257.98319 109.999999h-83.962085c-.364549.000377-.701736-.09484-.884232-.249695-.182497-.154855-.182497-.345753 0-.500608.182496-.154855.519683-.250072.884232-.249695h83.962085c.561915.000581 1.01681.224268 1.01681.499999s-.454895.499418-1.01681.499999z"/><path d="m349.966565 123h-133.93313c-.57075 0-1.033435-.223858-1.033435-.5s.462685-.5 1.033435-.5h133.93313c.36921 0 .710375.095299.894981.25.184605.154701.184605.345299 0 .5-.184606.154701-.525771.25-.894981.25z"/><path d="m257.981042 133h-83.962084c-.562755 0-1.018958-.223858-1.018958-.5s.456203-.5 1.018958-.5h83.962084c.562755 0 1.018958.223858 1.018958.5s-.456203.5-1.018958.5z"/><path d="m349.981042 133h-83.962084c-.562755 0-1.018958-.223858-1.018958-.5s.456203-.5 1.018958-.5h83.962084c.562755 0 1.018958.223858 1.018958.5s-.456203.5-1.018958.5z"/><path d="m257.981042 143h-83.962084c-.562755 0-1.018958-.223858-1.018958-.5s.456203-.5 1.018958-.5h83.962084c.562755 0 1.018958.223858 1.018958.5s-.456203.5-1.018958.5z"/><path d="m258.981042 156h-83.962084c-.562755 0-1.018958-.223858-1.018958-.5s.456203-.5 1.018958-.5h83.962084c.562755 0 1.018958.223858 1.018958.5s-.456203.5-1.018958.5z"/><path d="m297.023437 110h-23.046874c-.539341 0-.976563-.223858-.976563-.5s.437222-.5.976563-.5h23.046874c.539341 0 .976563.223858.976563.5s-.437222.5-.976563.5z"/><path d="m297.023437 143h-23.046874c-.539341 0-.976563-.223858-.976563-.5s.437222-.5.976563-.5h23.046874c.539341 0 .976563.223858.976563.5s-.437222.5-.976563.5z"/><path d="m297.02154 155.999999h-23.04308c-.349324.000377-.672429-.09484-.847304-.249695s-.174875-.345753 0-.500608.49798-.250072.847304-.249695h23.04308c.349324-.000377.672429.09484.847304.249695s.174875.345753 0 .500608-.49798.250072-.847304.249695z"/><path d="m338.021379 155.999999h-23.046874c-.538536-.000581-.974505-.224268-.974505-.499999s.435969-.499418.974505-.499999h23.046874c.349382-.000377.672539.09484.847443.249695s.174904.345753 0 .500608-.498061.250072-.847443.249695z"/><path d="m197.023437 123h-23.046874c-.539341 0-.976563-.223858-.976563-.5s.437222-.5.976563-.5h23.046874c.539341 0 .976563.223858.976563.5s-.437222.5-.976563.5z"/><path d="m257.981042 277h-83.962084c-.562755 0-1.018958-.223858-1.018958-.5s.456203-.5 1.018958-.5h83.962084c.562755 0 1.018958.223858 1.018958.5s-.456203.5-1.018958.5z"/><path d="m255.981042 300h-83.962084c-.562755 0-1.018958-.223858-1.018958-.5s.456203-.5 1.018958-.5h83.962084c.562755 0 1.018958.223858 1.018958.5s-.456203.5-1.018958.5z"/><path d="m255.978946 311.999999h-83.957892c-.364531.000377-.701701-.09484-.884188-.249695-.182488-.154855-.182488-.345753 0-.500608.182487-.154855.519657-.250072.884188-.249695h83.957892c.364531-.000377.701701.09484.884188.249695.182488.154855.182488.345753 0 .500608-.182487.154855-.519657.250072-.884188.249695z"/><path d="m293.023437 300h-23.046874c-.539341 0-.976563-.223858-.976563-.5s.437222-.5.976563-.5h23.046874c.539341 0 .976563.223858.976563.5s-.437222.5-.976563.5z"/><path d="m293.023439 312h-23.046878c-.53934 0-.976561-.223858-.976561-.5s.437221-.5.976561-.5h23.046878c.53934 0 .976561.223858.976561.5s-.437221.5-.976561.5z"/><path d="m334.023437 300h-23.046874c-.539341 0-.976563-.223858-.976563-.5s.437222-.5.976563-.5h23.046874c.539341 0 .976563.223858.976563.5s-.437222.5-.976563.5z"/><path d="m349.966565 289h-133.93313c-.57075 0-1.033435-.223858-1.033435-.5s.462685-.5 1.033435-.5h133.93313c.57075 0 1.033435.223858 1.033435.5s-.462685.5-1.033435.5z"/><path d="m197.023437 289h-23.046874c-.539341 0-.976563-.223858-.976563-.5s.437222-.5.976563-.5h23.046874c.539341 0 .976563.223858.976563.5s-.437222.5-.976563.5z"/><path d="m349.966584 321.999999h-133.930987c-.369723.000377-.711695-.09484-.896782-.249695s-.185087-.345753 0-.500608.527059-.250072.896782-.249695h133.930987c.57074 0 1.033416.223857 1.033416.499999s-.462676.499999-1.033416.499999z"/><path d="m197.02154 321.999999h-23.04308c-.349324.000377-.672429-.09484-.847304-.249695s-.174875-.345753 0-.500608.49798-.250072.847304-.249695h23.04308c.349324-.000377.672429.09484.847304.249695s.174875.345753 0 .500608-.49798.250072-.847304.249695z"/></g><path d="m237.299732 184-33.299732 32.5 33.299732 32.5 7.492278-7.404948-25.182559-24.889486 25.390549-25.095052z" fill="#2e855a"/><path d="m286.700268 184 33.299732 32.5-33.299732 32.5-7.492278-7.404948 25.183021-24.889486-25.391011-25.095052z" fill="#2e855a"/><circle cx="98.5" cy="80.5" fill="#2e855a" r="4.5"/><circle cx="108.5" cy="80.5" fill="#2e855a" r="4.5"/><circle cx="121.5" cy="80.5" fill="#2e855a" r="4.5"/><path d="m91 88h344v1h-344z" fill="#000" opacity=".1"/><path d="m515 277.135984c0 29.547227-17.237036 39.864016-38.5 39.864016s-38.5-10.316789-38.5-39.864016c0-29.547228 38.5-67.135984 38.5-67.135984s38.5 37.588756 38.5 67.135984z" fill="#f2f2f2"/><path d="m475.340762 312.989495.39081-24.368887 16.268428-30.147542-16.207125 26.324936.175797-10.957346 11.211787-21.811047-11.165358 18.911674.315983-19.707061 12.006029-17.364732-11.956445 14.265828.197433-36.135318-1.240946 47.836913.101872-1.9734-12.206617-18.926284 12.010987 22.714646-1.137271 22.009208-.033807-.584441-14.072319-19.917093 14.029497 21.980899-.14199 2.752349-.025694.04155.01172.226014-2.885774 55.839639h3.855362l.462481-28.842139 13.99569-21.927478z" fill="#3f3d56"/><path d="m56.8385024 343.677423c-1.1476367.659524-2.3582725 1.194759-3.6125868 1.597161-2.2435317.632652-4.641461.400552-6.9075878.940613-.9278081.221115-1.9376078.68362-2.2326693 1.618196-.2164314.685512.0190214 1.425772.2444909 2.108174 2.5040224 7.578711 4.0132908 15.625476 8.0066503 22.490253 1.6782613 2.88324 3.7612854 5.493746 6.1811566 7.746405.9078325.844644 1.9366183 1.670928 3.1520091 1.803447 1.1400699.12431 2.2575163-.390118 2.9297414-1.348737.6722252-.958619.7966193-2.215104.3261389-3.294275-.3580583-.821305-1.0236351-1.457469-1.4528889-2.241564-.4654669-.998798-.7384416-2.081464-.8037404-3.187777-.3945285-3.241403-.7745944-6.629192.3133805-9.696959.7297133-2.057572 2.0682662-3.811692 3.1833727-5.676084 1.1151066-1.864391 2.0416027-4.000003 1.7934719-6.17609-.1693285-1.485011-.8710663-2.844015-1.6123577-4.128641-.7427712-1.287157-2.2107942-4.746237-3.7030644-5.175782-1.5490428-.445878-4.4545865 1.906955-5.805517 2.62166z" fill="#2f2e41"/><path d="m98.1836399 369.760364c.0247643.712587-.0802911 1.423891-.3105637 2.102748-.4952274 1.23743-1.723715 2.085365-2.3583708 3.26441-.8826956 1.639819-.4826168 3.62195.1021913 5.377075.3666348 1.100341.8475284 2.245296 1.8321016 2.925802.841995.493889 1.7994844.784127 2.7880207.845117 8.445909 1.106115 17.025458.471481 25.54835.703234 1.553409.042238 3.198046.093707 4.554059-.624664 1.356012-.718371 2.19433-2.524374 1.27207-3.707992-.828161-1.062844-2.465634-1.052949-3.859548-1.115585-3.629793-.174505-7.086492-1.521956-9.793005-3.817398-.533767-.431508-.996706-.935775-1.373611-1.496235-.289861-.497455-.530389-1.019256-.7185-1.558711-1.194777-3.062526-2.616159-6.041563-4.253581-8.91497-.458333-.80423-.977287-1.641765-1.829077-2.072173-.62354-.268259-1.300208-.408056-1.985161-.410127-2.124234-.130277-7.624988-.81439-9.2676024.748712-1.5177261 1.444283-.3141225 5.91634-.3477727 7.750757z" fill="#2f2e41"/><circle cx="111.5" cy="171.5" fill="#fbbebe" r="12.5"/><path d="m98.9977198 184.100739c-.7740954 2.09442-2.0871271 4.061426-3.9977198 5.188479l18 3.710782c-.652869-2.655047-.738891-5.420152-.252344-8.111403.178629-.651426.215369-1.33425.107687-2.001409-.338462-1.319805-1.808534-1.955076-3.123875-2.258106-3.2852-.756854-6.1904-1.16272-9.243275-2.629082-.9331527 1.614455-.8024958 4.239328-1.4904732 6.100739z" fill="#fbbebe"/><path d="m93.9342826 183.295039c4.0746853-1.836444 8.7691984-1.714271 12.7420314.331606 2.396852 1.258016 4.381484 3.156932 6.331338 5.030431 1.797322 1.726943 3.714613 3.704309 3.842177 6.188386.06179 1.203392-.315323 2.3803-.505732 3.570245-.701447 5.044116 1.877584 9.978174 6.428603 12.298842 1.485203 2.464181 1.791728 5.449655 1.814508 8.323647.086305 10.889329-3.363191 21.912987-.900569 32.522843.578187 2.491028 1.474944 4.903797 1.974439 7.411651.64697 3.248317.615033 6.588443.953519 9.882843.367083 3.567496 1.168089 7.077342 2.385403 10.452356-.813605 1.28878-2.506861 1.782965-4.031769 1.678587-1.524909-.104377-2.950813-.763459-4.311507-1.456966-6.588744-3.358098-12.623564-7.786153-19.447689-10.640109-4.5147826-1.888155-9.3244876-3.064263-13.7043486-5.244994s-8.4532298-5.641664-9.7924178-10.332725c-.5790594-2.028379-.6147059-4.165559-.6463124-6.274098-.133116-8.881069-.2567989-17.859086 1.6841259-26.528227 1.7116504-7.645055 5.0110676-14.958615 5.7308705-22.758558.2342988-2.53892.2392998-5.256866 1.6635712-7.375423 2.0131136-2.994455 6.3597819-3.769953 7.7897588-7.080337z" fill="#2f2e41"/><path d="m103.109099 171.592809c.765818-1.037558 2.242817-1.179053 3.466268-.872141 1.223452.306911 2.351548.961917 3.587159 1.210768.567913.167473 1.177476.078538 1.679005-.244965.431937-.441855.690218-1.034805.724605-1.663517.432806-2.674965.533937-5.396505.300923-8.098167-.064341-.379014-.039915-.768547.071215-1.135688.305905-.765717 1.239186-.947972 2.001434-1.193613 2.587051-.908352 4.251528-3.5237 4.042658-6.352123-.019061-.659471-.285775-1.285016-.7431-1.742852-.527139-.446202-1.26495-.473618-1.944917-.479293-3.493564-.029143-6.987198-.028265-10.480902.002633-1.293047.011438-2.651012.044506-3.771954.714166-.828766.495116-1.445072 1.292036-2.1890903 1.915708-1.9404861 1.626629-4.5651913 1.957601-6.9260059 2.791279-1.1524543.340907-2.1989616.989164-3.0355201 1.880349-.7851052.931706-1.1625756 2.317144-.669498 3.444459.2531344.469868.5358598.92186.8463311 1.353028 1.3925564 2.312974.4654877 5.31308.6734362 8.032582.2596698 3.395908 5.0976552 8.904742 8.3782183 9.708334 5.2962517 1.297344 2.2364747-7.04179 3.9897347-9.270947z" fill="#2f2e41"/><path d="m96.6064154 319.413213c.346666 2.452321.7912482 4.913102.6724004 7.386546-.1659262 3.453202-1.4232511 6.780374-1.6556893 10.22981-.1736075 2.576355.2279206 5.18057-.133303 7.737749-.2312983 1.637398-.7703818 3.215807-1.1041046 4.835777-1.0679368 5.334121.1034336 10.868987 3.2442107 15.329285.2283553.377776.5530076.689421.9413793.903662.3725094.136676.7712096.188923 1.1667875.152899 3.9235896-.079087 7.8367096-.431327 11.7104126-1.054114.283561-.011518.552209-.128922.751944-.328614.08735-.132397.143189-.28272.163303-.439619.718246-3.657044-.919685-7.323912-1.336194-11.0266-.444745-3.953662.513034-7.915605 1.463728-11.78068.431095-1.906608.96967-3.787802 1.613193-5.634746.459526-1.242985 1.014493-2.451943 1.412774-3.715494.564093-1.985007.907622-4.025098 1.024477-6.083987.276547-3.248833.423063-6.505108.439548-9.768822.093941-3.092758-.165944-6.186107-.77469-9.220949-.873736-3.842292-2.662989-7.410241-4.436568-10.935316-.948327.22512-1.838623.644235-2.613692 1.230418-2.285513 1.466165-4.671871 2.772022-7.141565 3.907991-1.659332.763463-4.8953221 1.305688-5.948454 2.89659-1.0385651 1.568902-.3684769 4.769834-.2891287 6.500155.136172 2.969984.4125824 5.929337.8292311 8.878059z" fill="#2f2e41"/><path d="m96.6064154 319.413213c.346666 2.452321.7912482 4.913102.6724004 7.386546-.1659262 3.453202-1.4232511 6.780374-1.6556893 10.22981-.1736075 2.576355.2279206 5.18057-.133303 7.737749-.2312983 1.637398-.7703818 3.215807-1.1041046 4.835777-1.0679368 5.334121.1034336 10.868987 3.2442107 15.329285.2283553.377776.5530076.689421.9413793.903662.3725094.136676.7712096.188923 1.1667875.152899 3.9235896-.079087 7.8367096-.431327 11.7104126-1.054114.283561-.011518.552209-.128922.751944-.328614.08735-.132397.143189-.28272.163303-.439619.718246-3.657044-.919685-7.323912-1.336194-11.0266-.444745-3.953662.513034-7.915605 1.463728-11.78068.431095-1.906608.96967-3.787802 1.613193-5.634746.459526-1.242985 1.014493-2.451943 1.412774-3.715494.564093-1.985007.907622-4.025098 1.024477-6.083987.276547-3.248833.423063-6.505108.439548-9.768822.093941-3.092758-.165944-6.186107-.77469-9.220949-.873736-3.842292-2.662989-7.410241-4.436568-10.935316-.948327.22512-1.838623.644235-2.613692 1.230418-2.285513 1.466165-4.671871 2.772022-7.141565 3.907991-1.659332.763463-4.8953221 1.305688-5.948454 2.89659-1.0385651 1.568902-.3684769 4.769834-.2891287 6.500155.136172 2.969984.4125824 5.929337.8292311 8.878059z" fill="#000" opacity=".1"/><path d="m78.3084551 267c-1.7504954 4.701246.8226022 9.781394 3.0580988 14.2734 5.5074895 11.066777 9.3320102 22.875608 13.1361177 34.633848.2849509.880762.5696744 1.841659.2520043 2.711212-.2743309.617823-.7196692 1.14475-1.2837282 1.518916-2.6229453 1.98732-5.9627787 2.695079-9.0872804 3.734799-3.0195772 1.005241-5.911614 2.35762-8.617747 4.029846-2.2641305 1.399503-4.3851145 3.015077-6.5019358 4.627768l-6.738554 5.133762c-.4362718.294092-.817484.662197-1.1263284 1.087602-.6499257 1.017138-.3837136 2.345012-.0601338 3.507207.8569188 3.077246 1.9602246 6.080865 3.2992755 8.981887.220319.635901.639797 1.184272 1.1964891 1.564134 1.0517868.563823 2.3382537-.183795 3.1414209-1.065166.8031672-.88137 1.4978497-1.978148 2.6300378-2.35652 1.1308596-.377927 2.3755086.079749 3.5565616-.085639 1.9101381-.267492 3.1782983-2.022758 4.5551797-3.370245 5.6254688-5.505368 15.0175718-5.105971 21.2058091-9.973576.894527-.798482 1.841545-1.536444 2.834724-2.208953 1.04615-.616865 2.23253-.955428 3.317942-1.500641 3.301322-1.658286 5.376762-5.086592 6.488537-8.602952s1.428845-7.228287 2.227772-10.828244c.413021-1.861055.956695-3.702074 1.140423-5.599362.11817-1.764681.079641-3.53633-.115136-5.294239l-2.232899-27.553524c-.181794-2.243343-.363892-4.489305-.716866-6.712254-6.631479.236482-13.258209.502617-19.8934648.580882-5.2798244.062249-10.6566646.430433-15.6663191-1.233948z" fill="#2f2e41"/><path d="m76.625781 272.736025c.879087 1.567256 3.0187276 1.534882 4.4920942.675632 1.4733667-.85925 2.6180065-2.302796 4.0948408-3.154698 1.9845199-1.144757 4.3328657-1.101708 6.5690989-1.031692 3.540395.110848 7.1242559.228831 10.5305851 1.30438 3.523186 1.112452 6.952997 3.254319 10.595973 2.827025.633918-.074354 1.327076-.275882 1.672069-.870098.202157-.430474.297244-.912866.275485-1.397579l.119119-3.528175c.073013-.61019-.015004-1.230761-.253407-1.786674-.305738-.46262-.724784-.818294-1.207409-1.024811-5.185234-2.782581-11.0986-3.300694-16.8560668-3.519339-2.9266534-.111143-5.8545397-.156856-8.783659-.13714-2.4856124.016801-5.4695921-.381874-7.8861755.354375-3.2432108.988111-5.0079289 8.355382-3.3625477 11.288794z" fill="#2f2e41"/><path d="m109.577348 188.459023c-7.129039-.057511-13.5894339-4.342964-20.7178338-4.447361-.8612397-.054255-1.7241506.081341-2.515629.3953-.9933148.455699-1.6463876 1.336845-2.4009462 2.081005-2.10775 2.078694-5.1599823 3.18858-7.3253536 5.217537-2.0303401 1.902418-3.1595026 4.736819-2.3579214 7.287365.8015811 2.550546 3.8268967 4.506944 6.6610663 3.893785 1.1418644-3.366029 3.4985599-6.282177 6.6880484-8.275715 1.659555-.969435 3.4085519-1.805574 5.2272181-2.498966 3.2038428-1.321972 6.7864506-2.669213 10.1312542-1.678262 1.233538.424231 2.396682 1.00188 3.456337 1.716511l5.576412 3.41149c-.64977-2.334088-1.234049-4.951789-2.422652-7.102689z" fill="#2e855a"/><path d="m80.6817382 200.135445c-.9239899 1.15031.40706 2.817023.2033297 4.277195-.1353498.970165-.9353776 1.710934-1.2685339 2.632307-.345095.954383-.1620955 2.011558-.292974 3.01771-.1313398.731664-.3255857 1.450679-.5805842 2.149073-.5861969 2.086344-.9953663 4.218229-1.2231744 6.373074l-1.2179473 9.076573c-.211351 1.365975-.3399859 2.743424-.3852045 4.124849.0613975 1.032482-.0077657 2.06857-.2058567 3.083801-.2696978.99192-.866874 1.85968-1.2686068 2.806035-.4017327.946355-.5879468 2.091076-.0452456 2.964562-1.8174001 1.510627-2.3577883 4.477392-1.0870051 6.468158.2419137.310169.431135.657885.5601083 1.029262.0702367.519147-.0156189 1.047415-.2466766 1.517797l-1.231516 3.274587c-.3152302.838198-.4149281 2.114313.4614804 2.305646-.7259357.75235-1.2915051 1.64375-1.6625398 2.620346-.3657461.996375-.1989416 2.109952.4427894 2.956037.3059764.267894.5665105.58342.7715063.93435.120443.488896.0893456 1.002759-.0891799 1.473636-.3722062 1.445461-.1295002 2.980156.6706929 4.240972.8382331 1.25747 2.3425407 1.90095 3.8331306 1.639654 2.4635101-.554489 4.6772109-1.42981 7.1611378-.974976 5.3482408.979329 10.7136883 1.962889 15.8936367 3.613262 5.9119325 1.883604 11.6362985 4.645819 17.8149605 5.225622.406508.082995.829369.017357 1.191411-.184934.314827-.297714.510608-.699387.550942-1.13034.636544-2.97846 1.273095-5.95692 1.909654-8.935377.769549-3.3015 1.355573-6.642939 1.755389-10.009015.217381-2.172524.279346-4.357194.341175-6.539651l.492133-17.371587c.230587-2.560196-.111557-5.139542-1.001714-7.551687l-2.830971-9.018753c-1.61555-5.146741-5.321709-9.710757-6.641253-14.940877-.835142-3.310189-1.452088-6.862527-3.69172-9.442557-3.192903-3.678203-8.71705-4.250309-13.5521536-3.617906-2.1843143.285698-4.3873287.778732-6.2767475 1.909213-2.1847605 1.307181-3.794255 3.366355-5.3513644 5.378227-1.2832727 1.65807-2.5894437 2.991029-3.9025083 4.625712z" fill="#2e855a"/><path d="m91.4726901 252.304397c.4170768 1.719695 1.2929902 3.30535 1.8291297 4.994599.8982948 2.830229.8220501 5.878373 1.7185859 8.709113.3762992 1.188136.921501 2.328901 1.1915848 3.543158.6296888 2.831045-.2897099 5.759849-1.4317934 8.440279-1.1420834 2.68043-2.5329752 5.323334-2.9037256 8.195884-.2611313 2.023254.1139953 4.307771 1.7448382 5.620776 1.6931201 1.363144 4.1535976 1.270831 6.3587835 1.089465.7916828-.021169 1.5731248-.176764 2.3078448-.459522 1.686432-.762903 2.396732-2.671167 2.790941-4.414839 1.321093-5.843506.943678-11.900333.559761-17.867545l-1.00401-15.60542c-.193291-3.004375-.400378-6.070958-1.368539-8.955692-.352182-1.049351-.96603-3.16985-1.968409-3.839889-.992793-.663635-3.8279395-.693192-5.0571748-.74839-5.7671265-.258982-5.7024753 7.438182-4.7678171 11.298023z" fill="#fbbebe"/><path d="m96.9948095 194.328565c-1.1217271-.58526-2.5349864-.33293-3.6192578.318663-1.0469124.714255-1.9638332 1.601252-2.7112913 2.622807-2.4239132 2.947907-4.9898766 6.330477-4.6303793 10.124473.1347905 1.422514.6814663 2.768776 1.0521049 4.149073 1.625095 6.052281-.171951 12.453266.0342413 18.715022.1191454 3.618227.9093466 7.177159 1.6963107 10.711402.1606054.721277.4178419 1.556243 1.1181495 1.799119.5260728.182451 1.0943095-.052116 1.6149751-.249367 3.9365644-1.449306 8.3349623-.896966 11.7874724 1.480243 1.300734-.691503.813333-2.878127.521715-4.318039-.866438-4.278178.309715-8.691627 1.738111-12.817476 1.428396-4.12585 3.13746-8.246488 3.374121-12.604524.268141-4.937885-1.375078-9.757513-2.996395-14.431325-.35389-1.020176-.740642-2.089948-1.561157-2.79476-.70244-.520433-1.507463-.886872-2.362168-1.075236-1.722112-.507143-3.4656989-.800049-5.0565525-1.630075z" fill="#2f2e41"/></g></svg>