<svg id="a761666e-317c-445e-96b4-8ff633270475" data-name="Layer 1" xmlns="http://www.w3.org/2000/svg" width="1021.75928" height="750.26444" viewBox="0 0 1021.75928 750.26444">
<title>landing page</title>

<path d="M268.227,74.86778l-53.38806,87.26129a65.9906,65.9906,0,0,1-68.85449,112.54077L89.219,367.45134,636.85358,702.5042,815.86151,409.92064Z" transform="translate(-89.12036 -74.86778)" fill="#f2f2f2"/>
<circle cx="97.75928" cy="142.59338" r="43" fill="#f2f2f2"/>

<rect x="183.25928" y="176.09338" width="730" height="493" fill="#3f3d56"/>
<line x1="183.25928" y1="212.15244" x2="913.25928" y2="212.15244" fill="none" stroke="#2f2e41" stroke-miterlimit="10" stroke-width="2"/>
<circle cx="205.75928" cy="194.09338" r="9" fill="#3182CE"/>
<circle cx="232.75928" cy="194.59338" r="9" fill="#3182CE"/>
<circle cx="259.75928" cy="195.09338" r="9" fill="#3182CE"/>

<rect x="228.75928" y="245.59338" width="616" height="120" fill="#3182CE" opacity="0.3"/>
<line x1="228.75928" y1="365.59338" x2="844.75928" y2="245.59338" fill="none" stroke="#3182CE" stroke-miterlimit="10" stroke-width="2" opacity="0.3"/>
<line x1="844.75928" y1="365.59338" x2="228.75928" y2="245.59338" fill="none" stroke="#3182CE" stroke-miterlimit="10" stroke-width="2" opacity="0.3"/>

<rect x="228.75928" y="441.59338" width="147" height="193" fill="#3182CE" opacity="0.3"/>

<rect x="697.75928" y="441.59338" width="147" height="193" fill="#3182CE" opacity="0.3"/>

<rect x="463.25928" y="441.59338" width="147" height="193" fill="#3182CE" opacity="0.3"/>
<line x1="228.75928" y1="441.59338" x2="375.75928" y2="634.59338" fill="none" stroke="#3182CE" stroke-miterlimit="10" stroke-width="2" opacity="0.3"/>
<line x1="375.75928" y1="441.59338" x2="228.75928" y2="634.59338" fill="none" stroke="#3182CE" stroke-miterlimit="10" stroke-width="2" opacity="0.3"/>
<line x1="463.75928" y1="441.59338" x2="610.75928" y2="634.59338" fill="none" stroke="#3182CE" stroke-miterlimit="10" stroke-width="2" opacity="0.3"/>
<line x1="610.75928" y1="441.59338" x2="463.75928" y2="634.59338" fill="none" stroke="#3182CE" stroke-miterlimit="10" stroke-width="2" opacity="0.3"/>
<line x1="697.75928" y1="441.59338" x2="844.75928" y2="634.59338" fill="none" stroke="#3182CE" stroke-miterlimit="10" stroke-width="2" opacity="0.3"/>
<line x1="844.75928" y1="441.59338" x2="697.75928" y2="634.59338" fill="none" stroke="#3182CE" stroke-miterlimit="10" stroke-width="2" opacity="0.3"/>

<rect x="310.75928" y="245.59338" width="616" height="120" fill="#3182CE"/>
<rect x="725.75928" y="487.59338" width="147" height="193" fill="#3182CE"/>

<rect x="747.25928" y="513.09338" width="104" height="12" fill="#3f3d56"/>
<rect x="747.25928" y="539.09338" width="104" height="12" fill="#3f3d56"/>

<rect x="747.25928" y="565.09338" width="104" height="12" fill="#3f3d56"/>
<rect x="747.25928" y="591.09338" width="104" height="12" fill="#3f3d56"/>

<rect x="747.25928" y="617.09338" width="104" height="12" fill="#3f3d56"/>
<rect x="747.25928" y="643.09338" width="104" height="12" fill="#3f3d56"/>

<rect x="264.75928" y="467.59338" width="147" height="193" fill="#3182CE"/>
<rect x="286.25928" y="532.09338" width="104" height="12" fill="#3f3d56"/>

<rect x="286.25928" y="558.09338" width="104" height="12" fill="#3f3d56"/>
<rect x="286.25928" y="584.09338" width="104" height="12" fill="#3f3d56"/>

<path d="M737.71351,390.83022c0,22.46856-13.35644,30.31375-29.83387,30.31375q-.57257,0-1.14332-.01273c-.76344-.01636-1.51961-.05271-2.26668-.10361-14.87057-1.05244-26.42387-9.30115-26.42387-30.19741,0-21.62514,27.63446-48.91242,29.71026-50.93189l.00364-.00363c.08-.07816.12-.11634.12-.11634S737.71351,368.36166,737.71351,390.83022Z" transform="translate(-89.12036 -74.86778)" fill="#3f3d56"/>

<rect x="430.75928" y="515.59338" width="147" height="193" fill="#3182CE"/>
<rect x="471.25928" y="546.09338" width="66" height="66" fill="#3f3d56"/>
<rect x="446.25928" y="626.09338" width="116" height="8" fill="#3f3d56"/>
<rect x="446.25928" y="648.09338" width="116" height="8" fill="#3f3d56"/>
<rect x="446.25928" y="670.09338" width="116" height="8" fill="#3f3d56"/>
</svg>