<svg height="750.26444" viewBox="0 0 1021.75928 750.26444" width="1021.75928" xmlns="http://www.w3.org/2000/svg"><path d="m268.227 74.86778-53.38806 87.26129a65.9906 65.9906 0 0 1 -68.85449 112.54077l-56.76545 92.7815 547.63458 335.05286 179.00793-292.58356z" fill="#f2f2f2" transform="translate(-89.12036 -74.86778)"/><circle cx="97.75928" cy="142.59338" fill="#f2f2f2" r="43"/><path d="m183.25928 176.09338h730v493h-730z" fill="#3f3d56"/><path d="m183.25928 212.15244h730" fill="none" stroke="#2f2e41" stroke-miterlimit="10" stroke-width="2"/><circle cx="205.75928" cy="194.09338" fill="#3182ce" r="9"/><circle cx="232.75928" cy="194.59338" fill="#3182ce" r="9"/><circle cx="259.75928" cy="195.09338" fill="#3182ce" r="9"/><path d="m228.75928 245.59338h616v120h-616z" fill="#3182ce" opacity=".3"/><path d="m228.75928 365.59338 616-120" fill="none" opacity=".3" stroke="#3182ce" stroke-miterlimit="10" stroke-width="2"/><path d="m844.75928 365.59338-616-120" fill="none" opacity=".3" stroke="#3182ce" stroke-miterlimit="10" stroke-width="2"/><path d="m228.75928 441.59338h147v193h-147z" fill="#3182ce" opacity=".3"/><path d="m697.75928 441.59338h147v193h-147z" fill="#3182ce" opacity=".3"/><path d="m463.25928 441.59338h147v193h-147z" fill="#3182ce" opacity=".3"/><path d="m228.75928 441.59338 147 193" fill="none" opacity=".3" stroke="#3182ce" stroke-miterlimit="10" stroke-width="2"/><path d="m375.75928 441.59338-147 193" fill="none" opacity=".3" stroke="#3182ce" stroke-miterlimit="10" stroke-width="2"/><path d="m463.75928 441.59338 147 193" fill="none" opacity=".3" stroke="#3182ce" stroke-miterlimit="10" stroke-width="2"/><path d="m610.75928 441.59338-147 193" fill="none" opacity=".3" stroke="#3182ce" stroke-miterlimit="10" stroke-width="2"/><path d="m697.75928 441.59338 147 193" fill="none" opacity=".3" stroke="#3182ce" stroke-miterlimit="10" stroke-width="2"/><path d="m844.75928 441.59338-147 193" fill="none" opacity=".3" stroke="#3182ce" stroke-miterlimit="10" stroke-width="2"/><path d="m310.75928 245.59338h616v120h-616z" fill="#3182ce"/><path d="m725.75928 487.59338h147v193h-147z" fill="#3182ce"/><g fill="#3f3d56"><path d="m747.25928 513.09338h104v12h-104z"/><path d="m747.25928 539.09338h104v12h-104z"/><path d="m747.25928 565.09338h104v12h-104z"/><path d="m747.25928 591.09338h104v12h-104z"/><path d="m747.25928 617.09338h104v12h-104z"/><path d="m747.25928 643.09338h104v12h-104z"/></g><path d="m264.75928 467.59338h147v193h-147z" fill="#3182ce"/><path d="m286.25928 532.09338h104v12h-104z" fill="#3f3d56"/><path d="m286.25928 558.09338h104v12h-104z" fill="#3f3d56"/><path d="m286.25928 584.09338h104v12h-104z" fill="#3f3d56"/><path d="m737.71351 390.83022c0 22.46856-13.35644 30.31375-29.83387 30.31375q-.57257 0-1.14332-.01273c-.76344-.01636-1.51961-.05271-2.26668-.10361-14.87057-1.05244-26.42387-9.30115-26.42387-30.19741 0-21.62514 27.63446-48.91242 29.71026-50.93189l.00364-.00363c.08-.07816.12-.11634.12-.11634s29.83384 28.5833 29.83384 51.05186z" fill="#3f3d56" transform="translate(-89.12036 -74.86778)"/><path d="m430.75928 515.59338h147v193h-147z" fill="#3182ce"/><path d="m471.25928 546.09338h66v66h-66z" fill="#3f3d56"/><path d="m446.25928 626.09338h116v8h-116z" fill="#3f3d56"/><path d="m446.25928 648.09338h116v8h-116z" fill="#3f3d56"/><path d="m446.25928 670.09338h116v8h-116z" fill="#3f3d56"/></svg>