<svg fill="none" height="448" viewBox="0 0 2081 448" width="2081" xmlns="http://www.w3.org/2000/svg"><path clip-rule="evenodd" d="m189.695 14.3458-123.671 50.8459-35.0976 84.1073 94.5736 111.043 97.934-194.3612zm-189.695 209.0652 28.7802-68.969 94.2938 110.714-58.3222 115.749zm68.9799 160.144 57.5901-114.294 42.541 49.949-54.516 83.38zm50.2791 20.981 53.21-81.383 91.965 107.979-41.023 16.866zm56.045-85.718 93.964 110.327 67.678-27.825 45.979-91.252-100.919-154.448zm210.763-3.943-42.104 83.56 38.011-15.628 18.895-45.278zm2.584-5.128 51.961-103.124 7.386 17.965-44.816 107.397zm49.461-109.205-52.603 104.397-100.534-153.859 64.661-98.8978 33.171 13.8418zm-309.116 63.904 42.949 50.428 107.094-163.795-52.463-80.2906zm153.011-117.907-52.847-80.8793 26.542-52.6759 89.27 37.2521zm-55.989-85.6869-31.645-48.4298 30.215-12.4223 26.517 11.0654z" fill="#3eb0ef" fill-rule="evenodd"/><path d="m582.6 110.5h87.6c22.4 0 39.8 5.5 52.2 16.5s18.6 26.6 18.6 46.8c0 20-6.2 35.6-18.6 46.8s-29.8 16.8-52.2 16.8h-56.7v84.6h-30.9zm84.3 102c29.6 0 44.4-12.9 44.4-38.7 0-25.6-14.8-38.4-44.4-38.4h-53.4v77.1zm166.423 111.6c-14.4 0-27.1-3.1-38.1-9.3-10.8-6.2-19.2-15-25.2-26.4-5.8-11.6-8.7-25-8.7-40.2 0-15.4 2.9-28.8 8.7-40.2 6-11.6 14.4-20.5 25.2-26.7 11-6.2 23.7-9.3 38.1-9.3s27 3.1 37.8 9.3c11 6.2 19.4 15.1 25.2 26.7 6 11.4 9 24.8 9 40.2 0 15.2-3 28.6-9 40.2-5.8 11.4-14.2 20.2-25.2 26.4-10.8 6.2-23.4 9.3-37.8 9.3zm0-24c13.4 0 23.6-4.4 30.6-13.2 7.2-8.8 10.8-21.7 10.8-38.7 0-16.8-3.6-29.6-10.8-38.4-7.2-9-17.4-13.5-30.6-13.5s-23.4 4.5-30.6 13.5c-7.2 8.8-10.8 21.6-10.8 38.4 0 17 3.5 29.9 10.5 38.7 7.2 8.8 17.5 13.2 30.9 13.2zm105.736-189.6h30.3v211.5h-30.3zm198.051 143.4h-103.5c2.2 31 17.6 46.5 46.2 46.5 16.8 0 32-5.5 45.6-16.5l9.3 21.3c-6.8 5.8-15.2 10.4-25.2 13.8s-20.2 5.1-30.6 5.1c-23.4 0-41.9-6.7-55.5-20.1-13.4-13.4-20.1-31.9-20.1-55.5 0-15 2.9-28.3 8.7-39.9 6-11.6 14.3-20.6 24.9-27 10.8-6.4 23-9.6 36.6-9.6 19.8 0 35.3 6.4 46.5 19.2 11.4 12.8 17.1 30.5 17.1 53.1zm-63-59.7c-11.6 0-20.9 3.7-27.9 11.1-6.8 7.2-10.9 17.6-12.3 31.2h77.1c-.6-13.6-4.1-24-10.5-31.2-6.2-7.4-15-11.1-26.4-11.1zm164.23 106.5c4.6 0 9.1-.3 13.5-.9l-1.5 23.1c-5 .8-10.2 1.2-15.6 1.2-19 0-33.2-4.6-42.6-13.8-9.2-9.4-13.8-22.9-13.8-40.5v-70.8h-28.5v-23.4h28.5v-44.1h30.3v44.1h40.2v23.4h-40.2v69.6c0 21.4 9.9 32.1 29.7 32.1zm105.17 0c4.6 0 9.1-.3 13.5-.9l-1.5 23.1c-5 .8-10.2 1.2-15.6 1.2-19 0-33.2-4.6-42.6-13.8-9.2-9.4-13.8-22.9-13.8-40.5v-70.8h-28.5v-23.4h28.5v-44.1h30.3v44.1h40.2v23.4h-40.2v69.6c0 21.4 9.9 32.1 29.7 32.1zm100.07 23.4c-14.4 0-27.1-3.1-38.1-9.3-10.8-6.2-19.2-15-25.2-26.4-5.8-11.6-8.7-25-8.7-40.2 0-15.4 2.9-28.8 8.7-40.2 6-11.6 14.4-20.5 25.2-26.7 11-6.2 23.7-9.3 38.1-9.3s27 3.1 37.8 9.3c11 6.2 19.4 15.1 25.2 26.7 6 11.4 9 24.8 9 40.2 0 15.2-3 28.6-9 40.2-5.8 11.4-14.2 20.2-25.2 26.4-10.8 6.2-23.4 9.3-37.8 9.3zm0-24c13.4 0 23.6-4.4 30.6-13.2 7.2-8.8 10.8-21.7 10.8-38.7 0-16.8-3.6-29.6-10.8-38.4-7.2-9-17.4-13.5-30.6-13.5s-23.4 4.5-30.6 13.5c-7.2 8.8-10.8 21.6-10.8 38.4 0 17 3.5 29.9 10.5 38.7 7.2 8.8 17.5 13.2 30.9 13.2zm133.74-13.8v35.7h-35.7v-35.7zm169.69-175.8v211.5h-30v-25.2c-4.4 8.8-10.8 15.6-19.2 20.4-8.4 4.6-18.1 6.9-29.1 6.9-12.6 0-23.9-3.2-33.9-9.6-9.8-6.4-17.5-15.4-23.1-27-5.4-11.6-8.1-24.9-8.1-39.9 0-15.2 2.7-28.5 8.1-39.9 5.6-11.4 13.3-20.2 23.1-26.4s21.1-9.3 33.9-9.3c11 0 20.6 2.4 28.8 7.2 8.4 4.6 14.8 11.2 19.2 19.8v-88.5zm-71.1 189.6c13.2 0 23.3-4.5 30.3-13.5 7.2-9 10.8-21.8 10.8-38.4s-3.6-29.4-10.8-38.4c-7-9-17.1-13.5-30.3-13.5s-23.5 4.5-30.9 13.5c-7.2 8.8-10.8 21.4-10.8 37.8s3.7 29.3 11.1 38.7c7.4 9.2 17.6 13.8 30.6 13.8zm238.74-46.2h-103.5c2.2 31 17.6 46.5 46.2 46.5 16.8 0 32-5.5 45.6-16.5l9.3 21.3c-6.8 5.8-15.2 10.4-25.2 13.8s-20.2 5.1-30.6 5.1c-23.4 0-41.9-6.7-55.5-20.1-13.4-13.4-20.1-31.9-20.1-55.5 0-15 2.9-28.3 8.7-39.9 6-11.6 14.3-20.6 24.9-27 10.8-6.4 23-9.6 36.6-9.6 19.8 0 35.3 6.4 46.5 19.2 11.4 12.8 17.1 30.5 17.1 53.1zm-63-59.7c-11.6 0-20.9 3.7-27.9 11.1-6.8 7.2-10.9 17.6-12.3 31.2h77.1c-.6-13.6-4.1-24-10.5-31.2-6.2-7.4-15-11.1-26.4-11.1zm228.44-18.3-63.6 146.1h-27.3l-63-146.1h31.8l45.6 111.9 46.2-111.9z" fill="#2d3748"/></svg>