<svg fill="none" height="448" viewBox="0 0 2097 448" width="2097" xmlns="http://www.w3.org/2000/svg"><path clip-rule="evenodd" d="m189.695 14.3458-123.671 50.8459-35.0976 84.1073 94.5736 111.043 97.934-194.3612zm-189.695 209.0652 28.7802-68.969 94.2938 110.714-58.3222 115.749zm68.9799 160.144 57.5901-114.294 42.541 49.949-54.516 83.38zm50.2791 20.981 53.21-81.383 91.965 107.979-41.023 16.866zm56.045-85.718 93.964 110.327 67.678-27.825 45.979-91.252-100.919-154.448zm210.763-3.943-42.104 83.56 38.011-15.628 18.895-45.278zm2.584-5.128 51.961-103.124 7.386 17.965-44.816 107.397zm49.461-109.205-52.603 104.397-100.534-153.859 64.661-98.8978 33.171 13.8418zm-309.116 63.904 42.949 50.429 107.094-163.796-52.463-80.2907zm153.011-117.908-52.847-80.8783 26.542-52.676 89.27 37.2522zm-55.989-85.6858-31.645-48.4299 30.215-12.42230653 26.517 11.06540653z" fill="#3eafef" fill-rule="evenodd"/><path d="m582.6 322v-211.5h87.6c22.8 0 40.4 5.7 52.8 17.1 12.4 11.2 18.6 27 18.6 47.4 0 20.6-6.2 36.6-18.6 48-12.4 11.2-30 16.8-52.8 16.8h-56.4v82.2zm31.2-107.1h51.9c30.4 0 45.6-13.3 45.6-39.9 0-26.4-15.2-39.6-45.6-39.6h-51.9zm214.256 109.8c-14.8 0-27.6-3.1-38.4-9.3s-19.2-14.9-25.2-26.1c-5.8-11.4-8.7-24.9-8.7-40.5s2.9-29 8.7-40.2c6-11.4 14.4-20.2 25.2-26.4s23.6-9.3 38.4-9.3c14.4 0 27 3.1 37.8 9.3s19.2 15 25.2 26.4c6 11.2 9 24.6 9 40.2s-3 29.1-9 40.5c-6 11.2-14.4 19.9-25.2 26.1s-23.4 9.3-37.8 9.3zm0-23.4c12.4 0 22.4-4.5 30-13.5s11.4-22 11.4-39-3.8-29.9-11.4-38.7c-7.6-9-17.6-13.5-30-13.5-12.6 0-22.7 4.5-30.3 13.5-7.6 8.8-11.4 21.7-11.4 38.7s3.8 30 11.4 39 17.7 13.5 30.3 13.5zm153.729 23.4c-16 0-28-4.5-36-13.5-7.8-9-11.7-22.2-11.7-39.6v-161.1h30.3v159.3c0 19.8 8.1 29.7 24.3 29.7 2.4 0 4.6-.1 6.6-.3 2.2-.2 4.4-.6 6.605-1.2l-.6 24.3c-6.805 1.6-13.305 2.4-19.505 2.4zm111.235 0c-24 0-42.9-6.7-56.7-20.1-13.8-13.6-20.7-32.1-20.7-55.5 0-15 3-28.2 9-39.6 6.2-11.6 14.7-20.6 25.5-27s23.2-9.6 37.2-9.6c20.2 0 36.1 6.5 47.7 19.5 11.6 12.8 17.4 30.5 17.4 53.1v10.2h-107.4c2.2 30.4 18.3 45.6 48.3 45.6 8.4 0 16.6-1.3 24.6-3.9 8.2-2.6 15.9-6.9 23.1-12.9l9 21c-6.6 6-15.1 10.7-25.5 14.1s-20.9 5.1-31.5 5.1zm-4.5-130.5c-12.6 0-22.6 3.9-30 11.7s-11.9 18.2-13.5 31.2h81.9c-.6-13.6-4.2-24.1-10.8-31.5-6.6-7.6-15.8-11.4-27.6-11.4zm159.04 130.5c-18.4 0-32.1-4.7-41.1-14.1s-13.5-23-13.5-40.8v-70.8h-28.5v-23.4h28.5v-44.1h30.3v44.1h45.3v23.4h-45.3v68.4c0 10.6 2.2 18.6 6.6 24 4.6 5.4 12 8.1 22.2 8.1 3.2 0 6.3-.3 9.3-.9 3-.8 6-1.7 9-2.7l4.8 22.8c-3 1.8-7.2 3.2-12.6 4.2-5.2 1.2-10.2 1.8-15 1.8zm103.71 0c-18.4 0-32.1-4.7-41.1-14.1s-13.5-23-13.5-40.8v-70.8h-28.5v-23.4h28.5v-44.1h30.3v44.1h45.3v23.4h-45.3v68.4c0 10.6 2.2 18.6 6.6 24 4.6 5.4 12 8.1 22.2 8.1 3.2 0 6.3-.3 9.3-.9 3-.8 6-1.7 9-2.7l4.8 22.8c-3 1.8-7.2 3.2-12.6 4.2-5.2 1.2-10.2 1.8-15 1.8zm109.31 0c-14.8 0-27.6-3.1-38.4-9.3s-19.2-14.9-25.2-26.1c-5.8-11.4-8.7-24.9-8.7-40.5s2.9-29 8.7-40.2c6-11.4 14.4-20.2 25.2-26.4s23.6-9.3 38.4-9.3c14.4 0 27 3.1 37.8 9.3s19.2 15 25.2 26.4c6 11.2 9 24.6 9 40.2s-3 29.1-9 40.5c-6 11.2-14.4 19.9-25.2 26.1s-23.4 9.3-37.8 9.3zm0-23.4c12.4 0 22.4-4.5 30-13.5s11.4-22 11.4-39-3.8-29.9-11.4-38.7c-7.6-9-17.6-13.5-30-13.5-12.6 0-22.7 4.5-30.3 13.5-7.6 8.8-11.4 21.7-11.4 38.7s3.8 30 11.4 39 17.7 13.5 30.3 13.5zm96.57 20.7v-35.7h35.7v35.7zm124.73 2.7c-12.8 0-24.1-3-33.9-9-9.6-6.2-17.1-15-22.5-26.4s-8.1-24.9-8.1-40.5 2.7-29 8.1-40.2c5.4-11.4 12.9-20.2 22.5-26.4s20.9-9.3 33.9-9.3c11 0 20.8 2.4 29.4 7.2s15 11.3 19.2 19.5v-89.1h30.3v211.5h-29.7v-25.5c-4.2 8.8-10.7 15.7-19.5 20.7-8.6 5-18.5 7.5-29.7 7.5zm7.8-23.4c12.4 0 22.4-4.5 30-13.5s11.4-22 11.4-39-3.8-29.9-11.4-38.7c-7.6-9-17.6-13.5-30-13.5-12.6 0-22.7 4.5-30.3 13.5-7.6 8.8-11.4 21.7-11.4 38.7s3.8 30 11.4 39 17.7 13.5 30.3 13.5zm182.34 23.4c-24 0-42.9-6.7-56.7-20.1-13.8-13.6-20.7-32.1-20.7-55.5 0-15 3-28.2 9-39.6 6.2-11.6 14.7-20.6 25.5-27s23.2-9.6 37.2-9.6c20.2 0 36.1 6.5 47.7 19.5 11.6 12.8 17.4 30.5 17.4 53.1v10.2h-107.4c2.2 30.4 18.3 45.6 48.3 45.6 8.4 0 16.6-1.3 24.6-3.9 8.2-2.6 15.9-6.9 23.1-12.9l9 21c-6.6 6-15.1 10.7-25.5 14.1s-20.9 5.1-31.5 5.1zm-4.5-130.5c-12.6 0-22.6 3.9-30 11.7s-11.9 18.2-13.5 31.2h81.9c-.6-13.6-4.2-24.1-10.8-31.5-6.6-7.6-15.8-11.4-27.6-11.4zm137.79 127.8-63-146.4h32.7l44.7 111.3 45.9-111.3h30.9l-63.9 146.4z" fill="#fff" fill-opacity=".85"/></svg>