<svg fill="none" height="245" viewBox="0 0 1292 245" width="1292" xmlns="http://www.w3.org/2000/svg" xmlns:xlink="http://www.w3.org/1999/xlink"><linearGradient id="a" gradientUnits="userSpaceOnUse" x1="132.189" x2="132.189" y1="252.705" y2="120.659"><stop offset="0" stop-color="#007a55"/><stop offset="1" stop-color="#005037"/></linearGradient><clipPath id="b"><path d="m308 18h984v183h-984z"/></clipPath><path d="m221.494 101.381c11.78-.566 22.207 8.572 23.224 20.362 4.406 57.037-47.793 120.931-121.352 122.974-61.9889 1.53-123.2976406-48.098-123.2976406-123.137 0-11.826 9.7722306-21.413 21.5654406-21.413 11.7932 0 21.3535 9.587 21.3535 21.413 0 49.359 39.6877 81.303 79.3287 80.325 48.799-1.356 80.523-43.61 78.873-78.11-.566-11.812 8.526-21.847 20.305-22.414z" fill="url(#a)"/><g fill="#00a672"><path d="m168.15 123.24c0-12.107 9.876-21.922 22.058-21.922h32.146c12.183 0 22.364 9.815 22.364 21.922 0 12.108-10.181 21.923-22.364 21.923h-32.146c-12.182 0-22.058-9.815-22.058-21.923z"/><path d="m100.7 123.272c0-12.125 9.813-21.954 21.904-21.954 12.092 0 21.905 9.829 21.905 21.954s-9.813 21.955-21.905 21.955c-12.091 0-21.904-9.83-21.904-21.955z"/><path clip-rule="evenodd" d="m143.902 20.6961c.49 11.8158-8.666 21.7921-20.449 22.2828-50.8655 2.1183-81.9184 42.0968-80.4069 80.0571.4705 11.816-8.5094 21.778-20.2933 22.25-11.7838.472-22.146414-9.065-22.616927-20.881-2.463143-61.8602 49.044627-123.01379 121.545127-124.214774 11.783-.490703 21.732 8.690084 22.221 20.505874z" fill-rule="evenodd"/></g><g clip-path="url(#b)" fill="#fff"><path d="m408.408 133.495h41.329c-2.092 7.726-5.392 14.729-9.899 21.007-4.347 6.116-10.061 11.026-17.144 14.729-7.083 3.702-15.695 5.553-25.836 5.553-11.108 0-21.168-2.575-30.183-7.727-8.854-5.151-15.856-12.314-21.007-21.489-5.151-9.337-7.727-20.122-7.727-32.356 0-12.395 2.576-23.0997 7.727-32.1142 5.312-9.1755 12.395-16.2583 21.248-21.2485 9.015-4.9902 18.995-7.4852 29.942-7.4852 11.751 0 21.731 2.4146 29.941 7.2438 8.37 4.8291 14.89 11.2681 19.558 19.3167l23.18-15.6949c-7.405-11.751-17.304-20.9265-29.699-27.5263-12.234-6.5999-26.561-9.8999-42.98-9.8999-12.717 0-24.549 2.1731-35.495 6.5194-10.785 4.1853-20.202 10.1413-28.251 17.868-7.888 7.7267-14.085 16.9827-18.593 27.7679-4.346 10.6242-6.519 22.3752-6.519 35.2532s2.173 24.709 6.519 35.494c4.347 10.786 10.464 20.122 18.351 28.01 8.049 7.888 17.466 14.004 28.251 18.351 10.786 4.185 22.537 6.278 35.254 6.278 13.521 0 25.514-2.415 35.977-7.244 10.464-4.99 19.237-11.751 26.32-20.283 7.082-8.531 12.395-18.27 15.936-29.216 3.541-11.107 5.151-22.859 4.829-35.253h-67.581z"/><path d="m557.921 114.661 12.798-22.2146c-2.576-2.8975-5.634-4.9902-9.176-6.278-3.541-1.2878-7.324-1.9317-11.348-1.9317-4.669 0-9.256 1.4488-13.764 4.3463-4.507 2.7366-8.37 6.5999-11.59 11.59v-13.5216h-25.836v111.0716h25.836v-62.538c0-8.049 1.449-14.488 4.347-19.317 2.897-4.829 7.565-7.244 14.004-7.244 3.22 0 5.876.564 7.968 1.69 2.093.966 4.347 2.415 6.761 4.347z"/><path d="m583.786 86.6514v111.0716h25.595v-111.0716zm-3.622-40.7409c0 4.5073 1.61 8.2902 4.829 11.3487 3.22 3.0584 7.083 4.5877 11.59 4.5877 4.669 0 8.612-1.5293 11.832-4.5877 3.219-3.0585 4.829-6.8414 4.829-11.3487 0-4.5072-1.61-8.2901-4.829-11.3486-3.22-3.0585-7.163-4.5877-11.832-4.5877-4.507 0-8.37 1.5292-11.59 4.5877-3.219 3.0585-4.829 6.8414-4.829 11.3486z"/><path d="m653.169 142.187c0-11.107 3.3-19.719 9.9-25.836 6.6-6.278 14.407-9.417 23.421-9.417 4.991 0 9.9 1.368 14.729 4.105 4.83 2.736 8.854 6.761 12.073 12.073 3.22 5.151 4.83 11.509 4.83 19.075s-1.61 14.005-4.83 19.317c-3.219 5.151-7.243 9.095-12.073 11.831-4.829 2.737-9.738 4.105-14.729 4.105-9.014 0-16.821-3.058-23.421-9.175-6.6-6.278-9.9-14.971-9.9-26.078zm-27.044 0c0 12.234 2.495 22.697 7.485 31.39 4.991 8.531 11.591 15.131 19.8 19.8 8.21 4.507 17.144 6.76 26.802 6.76 8.049 0 15.293-1.77 21.732-5.312 6.6-3.702 11.992-8.853 16.178-15.453v18.351h26.319v-180.4122h-26.319v87.6912c-4.186-6.5996-9.578-11.6703-16.178-15.2117-6.439-3.7024-13.683-5.5536-21.732-5.5536-9.658 0-18.592 2.3342-26.802 7.0024-8.209 4.5072-14.809 11.1069-19.8 19.7999-4.99 8.531-7.485 18.914-7.485 31.148z"/><path d="m774.079 157.64-15.212 14.73c5.152 8.209 11.993 15.051 20.524 20.524 8.693 5.473 18.432 8.209 29.217 8.209 11.751 0 21.329-2.817 28.734-8.451 7.566-5.795 11.349-14.568 11.349-26.319 0-6.6-1.449-11.992-4.347-16.178-2.897-4.185-6.68-7.646-11.348-10.383-4.668-2.897-9.659-5.392-14.971-7.485-4.185-1.77-8.451-3.38-12.797-4.829-4.186-1.449-7.646-3.139-10.383-5.071-2.737-1.931-4.105-4.426-4.105-7.485 0-3.38 1.288-5.795 3.864-7.244 2.736-1.609 6.358-2.414 10.865-2.414 4.508 0 9.176 1.288 14.005 3.863 4.99 2.576 9.336 5.876 13.039 9.9l14.487-14.971c-4.185-5.6336-10.141-10.3018-17.868-14.0042-7.565-3.8634-15.855-5.7951-24.87-5.7951-6.6 0-12.797 1.2073-18.593 3.6219-5.795 2.4146-10.463 5.8756-14.004 10.3828-3.542 4.5076-5.312 9.9806-5.312 16.4196 0 6.922 1.529 12.556 4.587 16.902 3.22 4.185 7.244 7.566 12.073 10.141 4.83 2.576 9.82 4.91 14.971 7.002 6.439 2.415 12.073 4.991 16.902 7.727 4.99 2.737 7.486 6.52 7.486 11.349 0 3.702-1.369 6.519-4.105 8.451-2.576 1.771-6.198 2.656-10.866 2.656-4.829 0-10.302-1.932-16.419-5.795-5.956-4.024-11.591-9.176-16.903-15.454z"/><path d="m886.396 142.187c0-10.463 3.139-18.914 9.417-25.353 6.439-6.439 14.326-9.659 23.663-9.659 9.497 0 17.385 3.22 23.663 9.659s9.417 14.89 9.417 25.353c0 10.302-3.139 18.753-9.417 25.353-6.278 6.439-14.166 9.659-23.663 9.659-9.337 0-17.224-3.22-23.663-9.659-6.278-6.6-9.417-15.051-9.417-25.353zm-26.802 0c0 11.429 2.575 21.49 7.726 30.183 5.313 8.692 12.476 15.533 21.49 20.524 9.176 4.829 19.398 7.243 30.666 7.243 11.429 0 21.651-2.414 30.665-7.243 9.015-4.991 16.098-11.832 21.249-20.524 5.312-8.693 7.968-18.754 7.968-30.183s-2.656-21.49-7.968-30.182c-5.151-8.693-12.234-15.4538-21.249-20.283-9.014-4.9902-19.236-7.4853-30.665-7.4853-11.268 0-21.49 2.4951-30.666 7.4853-9.014 4.8292-16.177 11.59-21.49 20.283-5.151 8.692-7.726 18.753-7.726 30.182z"/><path d="m1153.57 127.217c0-14.005-2.9-24.629-8.69-31.8731-5.8-7.4048-14.73-11.1072-26.81-11.1072-7.4 0-14.16 1.7707-20.28 5.3122-6.12 3.3804-11.03 8.1291-14.73 14.2461-4.99-13.0388-15.61-19.5583-31.87-19.5583-7.25 0-13.52 1.6903-18.84 5.0707-5.15 3.3804-9.25 7.8877-12.31 13.5216v-16.1776h-25.595v111.0716h25.595v-67.609c0-7.405 1.85-13.361 5.55-17.868 3.87-4.668 9.34-7.002 16.42-7.002 6.76 0 11.51 2.173 14.25 6.519 2.74 4.185 4.1 10.302 4.1 18.351v67.609h26.32v-67.609c0-7.405 1.85-13.361 5.56-17.868 3.86-4.668 9.33-7.002 16.42-7.002 6.76 0 11.51 2.173 14.24 6.519 2.9 4.185 4.35 10.302 4.35 18.351v67.609h26.32z"/><path d="m1196.35 148.224h88.62c.16-1.288.24-2.576.24-3.864.16-1.288.24-2.414.24-3.38 0-17.546-7.4-31.39-17.38-41.5313-9.82-10.1413-23.35-15.212-40.57-15.212-15.94 0-28.9 4.2658-38.88 12.7974-9.81 8.5319-15.85 19.6389-18.11 33.3219-.32 1.931-.56 3.863-.72 5.795-.16 1.931-.24 3.943-.24 6.036 0 11.107 2.33 21.088 7 29.941 4.67 8.693 11.27 15.534 19.8 20.524s18.51 7.485 29.94 7.485c13.85 0 25.19-2.736 34.05-8.209 9.01-5.473 18.67-12.717 24.14-21.732l-25.11-9.175c-3.22 5.473-7.48 9.819-12.79 13.039-5.16 3.058-11.51 4.587-19.08 4.587-8.53 0-15.61-2.495-21.25-7.485-5.63-5.151-8.93-12.797-9.9-22.938zm.48-18.11c1.13-8.21 4.51-14.568 10.15-19.075 5.63-4.668 12.39-7.003 20.28-7.003 8.37 0 14.81 2.335 19.32 7.003 4.5 4.668 7.24 11.026 8.2 19.075z"/></g></svg>