<?xml version="1.0" encoding="UTF-8"?>
<svg width="2081px" height="448px" viewBox="0 0 2081 448" version="1.1" xmlns="http://www.w3.org/2000/svg" xmlns:xlink="http://www.w3.org/1999/xlink">
    <title>logo_light_mode</title>
    <g id="Page-1" stroke="none" stroke-width="1" fill="none" fill-rule="evenodd">
        <g id="logo_light_mode" fill="rgb(43,108,176)">
            <path d="M189.695,14.3458 L66.024,65.1917 L30.9264,149.299 L125.5,260.342 L223.434,65.9808 L189.695,14.3458 Z M0,223.411 L28.7802,154.442 L123.074,265.156 L64.7518,380.905 L0,223.411 Z M68.9799,383.555 L126.57,269.261 L169.111,319.21 L114.595,402.59 L68.9799,383.555 Z M119.259,404.536 L172.469,323.153 L264.434,431.132 L223.411,447.998 L119.259,404.536 Z M175.304,318.818 L269.268,429.145 L336.946,401.32 L382.925,310.068 L282.006,155.62 L175.304,318.818 Z M386.067,314.875 L343.963,398.435 L381.974,382.807 L400.869,337.529 L386.067,314.875 Z M388.651,309.747 L440.612,206.623 L447.998,224.588 L403.182,331.985 L388.651,309.747 Z M438.112,200.542 L385.509,304.939 L284.975,151.08 L349.636,52.1822 L382.807,66.024 L438.112,200.542 Z M128.996,264.446 L171.945,314.874 L279.039,151.079 L226.576,70.7884 L128.996,264.446 Z M282.007,146.539 L229.16,65.6597 L255.702,12.9838 L344.972,50.2359 L282.007,146.539 Z M226.018,60.8521 L194.373,12.4223 L224.588,0 L251.105,11.0654 L226.018,60.8521 Z" id="Shape"></path>
            <path d="M582.6,110.5 L670.2,110.5 C692.6,110.5 710,116 722.4,127 C734.8,138 741,153.6 741,173.8 C741,193.8 734.8,209.4 722.4,220.6 C710,231.8 692.6,237.4 670.2,237.4 L613.5,237.4 L613.5,322 L582.6,322 L582.6,110.5 Z M666.9,212.5 C696.5,212.5 711.3,199.6 711.3,173.8 C711.3,148.2 696.5,135.4 666.9,135.4 L613.5,135.4 L613.5,212.5 L666.9,212.5 Z M833.323,324.1 C818.923,324.1 806.223,321 795.223,314.8 C784.423,308.6 776.023,299.8 770.023,288.4 C764.223,276.8 761.323,263.4 761.323,248.2 C761.323,232.8 764.223,219.4 770.023,208 C776.023,196.4 784.423,187.5 795.223,181.3 C806.223,175.1 818.923,172 833.323,172 C847.723,172 860.323,175.1 871.123,181.3 C882.123,187.5 890.523,196.4 896.323,208 C902.323,219.4 905.323,232.8 905.323,248.2 C905.323,263.4 902.323,276.8 896.323,288.4 C890.523,299.8 882.123,308.6 871.123,314.8 C860.323,321 847.723,324.1 833.323,324.1 Z M833.323,300.1 C846.723,300.1 856.923,295.7 863.923,286.9 C871.123,278.1 874.723,265.2 874.723,248.2 C874.723,231.4 871.123,218.6 863.923,209.8 C856.723,200.8 846.523,196.3 833.323,196.3 C820.123,196.3 809.923,200.8 802.723,209.8 C795.523,218.6 791.923,231.4 791.923,248.2 C791.923,265.2 795.423,278.1 802.423,286.9 C809.623,295.7 819.923,300.1 833.323,300.1 Z M939.059,110.5 L969.359,110.5 L969.359,322 L939.059,322 L939.059,110.5 Z M1137.11,253.9 L1033.61,253.9 C1035.81,284.9 1051.21,300.4 1079.81,300.4 C1096.61,300.4 1111.81,294.9 1125.41,283.9 L1134.71,305.2 C1127.91,311 1119.51,315.6 1109.51,319 C1099.51,322.4 1089.31,324.1 1078.91,324.1 C1055.51,324.1 1037.01,317.4 1023.41,304 C1010.01,290.6 1003.31,272.1 1003.31,248.5 C1003.31,233.5 1006.21,220.2 1012.01,208.6 C1018.01,197 1026.31,188 1036.91,181.6 C1047.71,175.2 1059.91,172 1073.51,172 C1093.31,172 1108.81,178.4 1120.01,191.2 C1131.41,204 1137.11,221.7 1137.11,244.3 L1137.11,253.9 Z M1074.11,194.2 C1062.51,194.2 1053.21,197.9 1046.21,205.3 C1039.41,212.5 1035.31,222.9 1033.91,236.5 L1111.01,236.5 C1110.41,222.9 1106.91,212.5 1100.51,205.3 C1094.31,197.9 1085.51,194.2 1074.11,194.2 Z M1238.34,300.7 C1242.94,300.7 1247.44,300.4 1251.84,299.8 L1250.34,322.9 C1245.34,323.7 1240.14,324.1 1234.74,324.1 C1215.74,324.1 1201.54,319.5 1192.14,310.3 C1182.94,300.9 1178.34,287.4 1178.34,269.8 L1178.34,199 L1149.84,199 L1149.84,175.6 L1178.34,175.6 L1178.34,131.5 L1208.64,131.5 L1208.64,175.6 L1248.84,175.6 L1248.84,199 L1208.64,199 L1208.64,268.6 C1208.64,290 1218.54,300.7 1238.34,300.7 Z M1343.51,300.7 C1348.11,300.7 1352.61,300.4 1357.01,299.8 L1355.51,322.9 C1350.51,323.7 1345.31,324.1 1339.91,324.1 C1320.91,324.1 1306.71,319.5 1297.31,310.3 C1288.11,300.9 1283.51,287.4 1283.51,269.8 L1283.51,199 L1255.01,199 L1255.01,175.6 L1283.51,175.6 L1283.51,131.5 L1313.81,131.5 L1313.81,175.6 L1354.01,175.6 L1354.01,199 L1313.81,199 L1313.81,268.6 C1313.81,290 1323.71,300.7 1343.51,300.7 Z M1443.58,324.1 C1429.18,324.1 1416.48,321 1405.48,314.8 C1394.68,308.6 1386.28,299.8 1380.28,288.4 C1374.48,276.8 1371.58,263.4 1371.58,248.2 C1371.58,232.8 1374.48,219.4 1380.28,208 C1386.28,196.4 1394.68,187.5 1405.48,181.3 C1416.48,175.1 1429.18,172 1443.58,172 C1457.98,172 1470.58,175.1 1481.38,181.3 C1492.38,187.5 1500.78,196.4 1506.58,208 C1512.58,219.4 1515.58,232.8 1515.58,248.2 C1515.58,263.4 1512.58,276.8 1506.58,288.4 C1500.78,299.8 1492.38,308.6 1481.38,314.8 C1470.58,321 1457.98,324.1 1443.58,324.1 Z M1443.58,300.1 C1456.98,300.1 1467.18,295.7 1474.18,286.9 C1481.38,278.1 1484.98,265.2 1484.98,248.2 C1484.98,231.4 1481.38,218.6 1474.18,209.8 C1466.98,200.8 1456.78,196.3 1443.58,196.3 C1430.38,196.3 1420.18,200.8 1412.98,209.8 C1405.78,218.6 1402.18,231.4 1402.18,248.2 C1402.18,265.2 1405.68,278.1 1412.68,286.9 C1419.88,295.7 1430.18,300.1 1443.58,300.1 Z M1577.32,286.3 L1577.32,322 L1541.62,322 L1541.62,286.3 L1577.32,286.3 Z M1747.01,110.5 L1747.01,322 L1717.01,322 L1717.01,296.8 C1712.61,305.6 1706.21,312.4 1697.81,317.2 C1689.41,321.8 1679.71,324.1 1668.71,324.1 C1656.11,324.1 1644.81,320.9 1634.81,314.5 C1625.01,308.1 1617.31,299.1 1611.71,287.5 C1606.31,275.9 1603.61,262.6 1603.61,247.6 C1603.61,232.4 1606.31,219.1 1611.71,207.7 C1617.31,196.3 1625.01,187.5 1634.81,181.3 C1644.61,175.1 1655.91,172 1668.71,172 C1679.71,172 1689.31,174.4 1697.51,179.2 C1705.91,183.8 1712.31,190.4 1716.71,199 L1716.71,110.5 L1747.01,110.5 Z M1675.91,300.1 C1689.11,300.1 1699.21,295.6 1706.21,286.6 C1713.41,277.6 1717.01,264.8 1717.01,248.2 C1717.01,231.6 1713.41,218.8 1706.21,209.8 C1699.21,200.8 1689.11,196.3 1675.91,196.3 C1662.71,196.3 1652.41,200.8 1645.01,209.8 C1637.81,218.6 1634.21,231.2 1634.21,247.6 C1634.21,264 1637.91,276.9 1645.31,286.3 C1652.71,295.5 1662.91,300.1 1675.91,300.1 Z M1914.65,253.9 L1811.15,253.9 C1813.35,284.9 1828.75,300.4 1857.35,300.4 C1874.15,300.4 1889.35,294.9 1902.95,283.9 L1912.25,305.2 C1905.45,311 1897.05,315.6 1887.05,319 C1877.05,322.4 1866.85,324.1 1856.45,324.1 C1833.05,324.1 1814.55,317.4 1800.95,304 C1787.55,290.6 1780.85,272.1 1780.85,248.5 C1780.85,233.5 1783.75,220.2 1789.55,208.6 C1795.55,197 1803.85,188 1814.45,181.6 C1825.25,175.2 1837.45,172 1851.05,172 C1870.85,172 1886.35,178.4 1897.55,191.2 C1908.95,204 1914.65,221.7 1914.65,244.3 L1914.65,253.9 Z M1851.65,194.2 C1840.05,194.2 1830.75,197.9 1823.75,205.3 C1816.95,212.5 1812.85,222.9 1811.45,236.5 L1888.55,236.5 C1887.95,222.9 1884.45,212.5 1878.05,205.3 C1871.85,197.9 1863.05,194.2 1851.65,194.2 Z M2080.09,175.9 L2016.49,322 L1989.19,322 L1926.19,175.9 L1957.99,175.9 L2003.59,287.8 L2049.79,175.9 L2080.09,175.9 Z" id="Shape" fill-rule="nonzero"></path>
        </g>
    </g>
</svg>