<svg height="334" viewBox="0 0 519 334" width="519" xmlns="http://www.w3.org/2000/svg" xmlns:xlink="http://www.w3.org/1999/xlink"><linearGradient id="a" x1="50.013785%" x2="50.013785%" y1="99.981248%" y2=".024443%"><stop offset="0" stop-color="#808080" stop-opacity=".25"/><stop offset=".54" stop-color="#808080" stop-opacity=".12"/><stop offset="1" stop-color="#808080" stop-opacity=".1"/></linearGradient><g fill="none" fill-rule="evenodd" transform="translate(-23 -45)"><ellipse cx="419.5" cy="358.5" fill="#2e855a" fill-rule="nonzero" opacity=".1" rx="90.5" ry="20.5"/><path d="m.00927273.36996479c0 73.10316901 45.40390907 132.25538721 101.53636327 132.25538721" fill="#2e855a" fill-rule="nonzero" opacity=".1" transform="translate(317 57)"/><path d="m318.016554 107.319758c-33.265228.25488-65.228058-7.292384-95.789752-15.7034064-30.561693-8.4110222-60.874192-17.8698822-93.467062-21.730834-20.979428-2.4874347-44.8551631-2.0956756-61.3443723 7.551984-15.8685717 9.2795003-20.5656689 24.4920284-22.8836558 38.5292784-1.7443675 10.563338-2.5953931 21.645874 3.5451564 31.255774 4.2410228 6.669346 11.5664256 12.144534 16.7384046 18.497641 17.989083 22.103713 6.8317139 50.551093-11.0069115 73.400564-8.3645005 10.719097-18.1489443 21.003956-24.496373 32.322492-6.3474286 11.318536-9.0180505 24.119149-2.7223416 35.211125 6.2439891 10.988137 20.471633 18.87996 35.7759888 24.284349 31.0929969 10.903177 67.3344634 13.074372 102.6214654 13.76349 78.115689 1.533997 156.433555-3.129353 234.539841-7.787983 28.901958-1.727516 57.935567-3.464473 86.268608-8.094783 15.73222-2.572394 31.934619-6.343666 43.134304-14.447889 14.222942-10.289578 17.246199-26.955863 7.052699-38.859678-17.100443-19.960838-62.533927-23.44891-74.758605-45.090064-6.728274-11.913255-.738182-25.662586 7.993059-37.250162 18.778985-24.846027 50.943992-47.1999 51.719789-74.868481.517198-18.9979597-15.986117-37.4200807-40.755194-45.5148636-25.977439-8.495982-61.494829-6.0368672-79.860056 10.1998984-18.915338 16.7182046-52.928152 24.1097092-82.304992 24.3315482z" fill="#2e855a" fill-rule="nonzero" opacity=".1"/><path d="m468 60.6878116v244.1265924c0 7.261496-6.996532 13.185596-15.62935 13.185596h-330.746002c-8.632818 0-15.624648-5.905263-15.624648-13.185596v-244.1265924c0-7.2756232 6.99183-14.6878116 15.624648-14.6878116l330.703685.8052632c8.618711 0 15.671667 6.6069252 15.671667 13.8825484z" fill="#fff" fill-rule="nonzero"/><path d="m468 59.7262925v11.2737075h-362v-11.2737075c0-8.1312661 6.59676-14.7236868 14.735975-14.7262805h332.499838c3.913161-.0049866 7.667826 1.5441761 10.437055 4.3062949s4.325887 6.5106436 4.327132 10.4199856z" fill="#3f3d56" fill-rule="nonzero"/><circle cx="124.5" cy="57.5" fill="#fa5959" fill-rule="nonzero" opacity=".8" r="5.5"/><circle cx="138.5" cy="57.5" fill="#fed253" fill-rule="nonzero" opacity=".8" r="5.5"/><circle cx="154.5" cy="57.5" fill="#8ccf4d" fill-rule="nonzero" opacity=".8" r="5.5"/><rect fill="#2e855a" fill-rule="nonzero" height="15" opacity=".2" rx="7.5" width="33" x="237" y="127"/><rect fill="#2e855a" fill-rule="nonzero" height="15" opacity=".2" rx="7.5" width="33" x="304" y="127"/><path d="m255 142.201109 33.003163 42.798891 33.996837-43" stroke="#3f3d56"/><rect fill="#000" fill-rule="nonzero" height="24" opacity=".1" rx="8.57" width="50" x="262" y="183"/><rect fill="#2e855a" fill-rule="nonzero" height="23" rx="8.57" width="49" x="262" y="183"/><path d="m255.213886 125-.427772-14" stroke="#3f3d56"/><path d="m341 112-19.007937 14-19.992063-14" stroke="#3f3d56"/><rect fill="#2e855a" fill-rule="nonzero" height="15" opacity=".2" rx="7.5" width="33" x="237" y="97"/><rect fill="#2e855a" fill-rule="nonzero" height="15" opacity=".2" rx="7.5" width="33" x="323" y="97"/><rect fill="#2e855a" fill-rule="nonzero" height="15" opacity=".2" rx="7.5" width="33" x="284" y="97"/><path d="m287.063461 206-.126922 42" stroke="#3f3d56"/><path d="m241 278 46.40625-14 46.59375 13.899445" stroke="#3f3d56"/><rect fill="#2e855a" fill-rule="nonzero" height="15" opacity=".2" rx="7.5" width="33" x="271" y="248"/><path d="m412.5 164h18c4.142136 0 7.5 3.357864 7.5 7.5 0 4.142136-3.357864 7.5-7.5 7.5h-18c-4.142136 0-7.5-3.357864-7.5-7.5 0-4.142136 3.357864-7.5 7.5-7.5z" fill="#2e855a" fill-rule="nonzero" opacity=".2" transform="matrix(0 1 -1 0 593 -250)"/><path d="m412.5 216h18c4.142136 0 7.5 3.357864 7.5 7.5 0 4.142136-3.357864 7.5-7.5 7.5h-18c-4.142136 0-7.5-3.357864-7.5-7.5 0-4.142136 3.357864-7.5 7.5-7.5z" fill="#2e855a" fill-rule="nonzero" opacity=".2" transform="matrix(0 -1 1 0 198 645)"/><rect fill="#2e855a" fill-rule="nonzero" height="15" opacity=".2" rx="7.5" width="33" x="317" y="278"/><rect fill="#2e855a" fill-rule="nonzero" height="15" opacity=".2" rx="7.5" transform="matrix(-1 0 0 -1 481 571)" width="33" x="224" y="278"/><rect fill="#2e855a" fill-rule="nonzero" height="15" opacity=".2" rx="7.5" transform="matrix(-1 0 0 -1 577 571)" width="33" x="272" y="278"/><path d="m399 197 14 26" stroke="#3f3d56"/><path d="m370 195h15" stroke="#3f3d56"/><path d="m311 194 42 1" stroke="#3f3d56"/><path d="m413 171-14 26" stroke="#3f3d56"/><path d="m351.5 189h18c4.142136 0 7.5 3.357864 7.5 7.5 0 4.142136-3.357864 7.5-7.5 7.5h-18c-4.142136 0-7.5-3.357864-7.5-7.5 0-4.142136 3.357864-7.5 7.5-7.5z" fill="#2e855a" fill-rule="nonzero" opacity=".2" transform="matrix(0 1 -1 0 557 -164)"/><path d="m382.5 190h18c4.142136 0 7.5 3.357864 7.5 7.5 0 4.142136-3.357864 7.5-7.5 7.5h-18c-4.142136 0-7.5-3.357864-7.5-7.5 0-4.142136 3.357864-7.5 7.5-7.5z" fill="#2e855a" fill-rule="nonzero" opacity=".2" transform="matrix(0 1 -1 0 589 -194)"/><path d="m143.5 164h18c4.142136 0 7.5 3.357864 7.5 7.5 0 4.142136-3.357864 7.5-7.5 7.5h-18c-4.142136 0-7.5-3.357864-7.5-7.5 0-4.142136 3.357864-7.5 7.5-7.5z" fill="#2e855a" fill-rule="nonzero" opacity=".2" transform="matrix(0 1 -1 0 324 19)"/><path d="m143.5 216h18c4.142136 0 7.5 3.357864 7.5 7.5 0 4.142136-3.357864 7.5-7.5 7.5h-18c-4.142136 0-7.5-3.357864-7.5-7.5 0-4.142136 3.357864-7.5 7.5-7.5z" fill="#2e855a" fill-rule="nonzero" opacity=".2" transform="matrix(0 -1 1 0 -71 376)"/><path d="m174 197-14 26" stroke="#3f3d56"/><path d="m206 195h-15" stroke="#3f3d56"/><path d="m262 194-42 1" stroke="#3f3d56"/><path d="m160 171 14 26" stroke="#3f3d56"/><g fill-rule="nonzero"><path d="m204.5 189h18c4.142136 0 7.5 3.357864 7.5 7.5 0 4.142136-3.357864 7.5-7.5 7.5h-18c-4.142136 0-7.5-3.357864-7.5-7.5 0-4.142136 3.357864-7.5 7.5-7.5z" fill="#2e855a" opacity=".2" transform="matrix(0 1 -1 0 410 -17)"/><path d="m173.5 190h18c4.142136 0 7.5 3.357864 7.5 7.5 0 4.142136-3.357864 7.5-7.5 7.5h-18c-4.142136 0-7.5-3.357864-7.5-7.5 0-4.142136 3.357864-7.5 7.5-7.5z" fill="#2e855a" opacity=".2" transform="matrix(0 1 -1 0 380 15)"/><path d="m74 281c0 23.765897 14.7603235 43 33 43" fill="#46455b"/><path d="m106 324c0-23.768821 16.550032-43 37-43" fill="#2e855a"/><path d="m86 283c0 22.660644 9.3946138 41 21 41" fill="#2e855a"/><path d="m106 325c0-30.953768 19.234103-56 43-56" fill="#46455b"/><ellipse cx="106.5" cy="331" fill="#2e855a" opacity=".1" rx="8.5" ry="1"/><path d="m101 324.859516s4.573441-.164172 5.945473-1.297485 7.029379-2.494347 7.372387-.672573 6.860161 9.061208 1.705893 9.10887c-5.154267.047663-11.991562-.93207-13.363594-1.901211-1.372032-.969142-1.660159-5.237601-1.660159-5.237601z" fill="#a8a8a8"/><path d="m116.115268 330.380553c-5.157297.046725-11.983399-.908541-13.359593-1.863806-1.047004-.721642-1.463062-3.317473-1.604797-4.516747h-.150878s.28804 4.18448 1.664234 5.134554c1.376193.950075 8.202296 1.910532 13.359592 1.863807 1.490495 0 2.002567-.617808 1.975135-1.505582-.205743.545125-.77268.877391-1.883693.887774z" fill="#000" opacity=".2"/><path d="m472.998867 351.424264-13.031772-18.866912s-.244905-4.669702-1.097363-5.765413c-.852458-1.09571-.183679-3.517559-.183679-3.517559s.913684-1.335545.122453-1.45311c-.791232-.117566-.122453-3.094324-.122453-3.094324l-.061226-4.735539s.730005-4.547434.122453-5.643144c-.36228-.603501-.338349-1.362626.061226-1.942182 0 0 .730005-2.609954 0-3.291834-.730006-.68188-.551036-4.730836-.367358-7.942726.183679-3.21189-1.276332-5.036506-1.276332-5.520876s-4.813325-5.219909-4.813325-5.643144c0-.423236-3.042473-2.182016-4.869841-2.671089-1.827368-.489072-2.741053-.846471-2.679826-1.091008.061226-.244536-2.863505-1.213276-2.863505-1.213276s-2.557373-.178699-3.532283-1.453109c-.974911-1.27441-3.956158-1.645917-4.036223-1.655323 0-.084647-.042388-.169294-.056517-.253941l-.056516-.272752c.230776-.385615.442713-.780635.635811-1.189763l.169549-.371507c1.07186.003441 2.118402-.325165 2.995377-.940524.868997-.726868 1.397575-1.780729 1.46001-2.910922.050781-1.120537-.194477-2.234703-.711166-3.2307-.536907-1.095711-1.318719-2.224339-1.050266-3.4094.117743-.512585.423874-.940524.584005-1.462515.235412-.978128.078205-2.009404-.438004-2.873301-.470971-.87939-1.102072-1.655322-1.615431-2.511199-.655628-1.087101-1.092382-2.291557-1.285751-3.545775-.039933-.667203-.199452-1.321837-.470971-1.932777-.275354-.431005-.639882-.798191-1.069105-1.0769-1.905364-1.35955-4.205846-2.055266-6.546499-1.979803-1.657818.056431-3.296798.50318-4.954616.300967-.984548-.173107-1.953268-.426325-2.896473-.757122-2.039305-.601935-4.39887-.851174-6.174431.315076-1.775562 1.16625-2.486728 3.461128-3.692414 5.257529-1.069105 1.589486-2.628019 2.920327-3.43809 4.603866 0-.032919 0-.065837.023549-.098755-.203.390014-.361002.801778-.470971 1.227383-.310841 1.321437-.051807 2.704007.268453 4.020741.16955.68188.395616 1.410786.98433 1.796401.588714.385614 1.412913.296265 2.12879.418533-.028259.117565-.056517.230428-.080066.347994-1.515146 7.089514 2.691774 14.148547 9.654909 16.200526v.366805c0 .362102-.028258.710095-.065936 1.043982s-6.122625-1.2556-7.766314-.409128c-1.643689.846471-4.874552 1.518946-5.359652 2.003316s-1.704915.122268-2.802278 2.972056-1.215106 5.765412-2.6186 7.096254c-1.403494 1.330841-2.128789 2.247852-2.190016 3.216592-.061226.96874.178969 1.213276-.367357 1.518946-.546327.305671-1.337558 1.575378-1.097363 2.059748 0 0 .306131 1.213276-.668779 1.819914-.58647.413438-.910607 1.105441-.852458 1.819914 0 0-.367357 1.335544-1.219815 1.636512s-1.412913 2.308986-1.412913 2.308986l-2.759891 3.169566-5.477395-6.047569c-.854079-.940846-2.309493-1.014454-3.254411-.164592l-2.642148 2.445363c-1.037325.25013-1.974722.807459-2.689245 1.59889-.590802.600051-1.069313 1.30081-1.412913 2.069153l-1.46943 1.326139c-.464755.412204-.73901.997307-.758264 1.617702-.39033.834357-.239845 1.821236.381487 2.501794l3.504025 3.874959v.032918c-1.244617.103211-2.427858.583999-3.390992 1.377868-5.237199 4.608568-5.298426 8.855034-4.507194 10.816026.791231 1.960993 7.427215 9.405241 7.427215 9.405241s3.857254 5.00829 9.419423 7.669973l-.037678.042324c-.113033.117565-.221356.244536-.32968.380912l-.089484.117566-.084775.117565-.098904.145781-.075355.117566-.108324.173997c-.019135.040712-.04117.080001-.065936.117565-.042387.075242-.084774.155187-.122452.235131l-.042388.079945c-.051806.103458-.098903.21632-.15071.329183s-.032968.084648-.047097.122268c-.01413.037621-.065936.15989-.094195.244537l-.056516.155186c-.028258.075242-.051807.155187-.080065.235131-.028259.079945-.032968.112863-.051807.173997l-.070646.263347-.042387.164592c-.037678.141078-.065936.286859-.098904.437343l-.028258.173997c0 .098755-.037678.202213-.051807.310373s-.023549.145781-.032968.221023c-.00942.075242 0 .19751-.037678.300968s0 .155186-.023548.230428c-.023549.075242 0 .230429 0 .347994v.211618c0 .188105 0 .385615-.023549.587828-.122452 7.096254.292002 8.126127.292002 8.126127s.861877 2.261961 3.235572 2.42185c.34795.024358.697583.005402 1.040846-.056432 3.164926-.545503 10.596851-1.819914 13.215451-1.330841 1.573043.291562 4.488355-.141079 6.560628-.531396l.551036-.10816.376777 1.208573 1.205686-.329183 1.022008.587827.64523.371507c1.200976 4.067767 6.080238 2.680494 6.080238 2.680494l1.158589.667772 11.774278.300967c1.319601.799439 2.713964 1.468796 4.163385 1.998614.192927.056396.389675.09883.588714.126971 1.088848.086317 2.181931.106732 3.27325.061134.904264 0 1.601302-.061134 1.601302-.061134s-.122453-3.183674-.292002-6.752963c4.488355-.188105 8.47748-.470262 10.884143-.888795 6.245077-1.100413 8.858967-6.818799 9.824458-9.866097.287871 1.238998.492415 2.495835.612263 3.762096.256154 1.116438.581755 2.215848.97491 3.291834.344411.861537.795329 1.676707 1.342268 2.426552 4.629646-1.575378 1.827368-3.940796.852457-4.97067-.97491-1.029873.668779-1.881048.668779-1.881048s1.281042-.851174 1.15859-1.641214c-.122453-.79004-.183679-1.636512 3.956157-1.575378 4.139837.061134 3.960868-3.395292 3.960868-3.395292zm-64.306401-38.735483c.051806.347994.631101 4.081875 1.153879 5.064722.144718.65573.190751 1.329334.136582 1.998614-2.45376-.192807-5.011134-.300968-5.011134-.300968.074461.089533.120388.199264.131872.315076l-.386196-.08935c-.178969-.042323-.367357-.084647-.560456-.136376l4.521323-6.861123zm-8.948452 14.225427 4.23874.672474.357938.056432c-.121066.661715-.195037 1.331163-.221356 2.003316 0 .061134.094194.136376.230776.225726-.05731.330738-.084111.66603-.080066 1.001658.065936.338589 2.053435 1.062792 4.332935 1.664727-.032968.122269-.065936.235131-.094194.347994-2.011047-1.058089-5.180683-1.551864-5.54804-2.35131-.367358-.799445-11.119629-4.528623-11.119629-4.528623s-.395616-.211618-1.073814-.536099l2.825826.536099.781813-.079945c1.763461.443747 3.553718.773614 5.359651.987551z" fill="url(#a)"/><path d="m459.958662 352.974734s-1.695951 10.264139-10.293809 11.785981c-8.597859 1.521842-37.29203 1.213681-37.29203 1.213681s-16.406792-2.370471-22.340259-16.280393-9.745814-19.43786-4.662685-19.68913c5.083129-.251269 32.511242 9.296986 34.084367 9.420251 1.573125.123264 42.016128-21.144599 40.504416 13.54961z" fill="#65617d"/><path d="m459.958662 352.974734s-1.695951 10.264139-10.293809 11.785981c-8.597859 1.521842-37.29203 1.213681-37.29203 1.213681s-16.406792-2.370471-22.340259-16.280393-9.745814-19.43786-4.662685-19.68913c5.083129-.251269 32.511242 9.296986 34.084367 9.420251 1.573125.123264 42.016128-21.144599 40.504416 13.54961z" fill="#000" opacity=".05"/><path d="m382.302608 364.560647s.836251 2.262935 3.141717 2.428979c.338263.024574.678193.005448 1.011817-.05693 3.081654-.550315 10.302982-1.826478 12.848696-1.337836 1.533897.28939 4.366062-.142323 6.385076-.531339 1.33985-.260925 2.310086-.502874 2.310086-.502874s-2.365528-8.06497-2.665839-8.330639c-.300311-.26567-10.654114-6.64174-10.654114-6.64174l-8.219285-.588268c-1.099567.174108-2.091968.77533-2.772102 1.679411-.863972 1.076911-1.60782 2.84646-1.658642 5.740361-.143225 7.106661.27259 8.140875.27259 8.140875z" fill="#3f3d56"/><path d="m381.33844 364.567054s.930256 2.266631 3.494885 2.432946c-.894057-1.063927-1.721176-2.174526-2.477257-3.326294l.046256-5.906547c-.37429-3.284747.960965-6.538624 3.597676-8.767159h-.035977s-4.805467.304118-4.939095 7.43189.313512 8.135164.313512 8.135164z" fill="#000" opacity=".05"/><path d="m417.881741 352 7.8193-5.9892 12.298959-11.86269s-1.329234-.064798-3.33491-.14811c-.473037.310105-1.892148 1.286706-1.948912 2.476215-.056765 1.45333-3.311258.101826-5.023652.925688s-9.981079 11.23785-11.438032 11.163795c-1.456954-.074055-2.606433-.722036-3.211921.286963l-.042573.064799z" fill="#000" opacity=".1"/><path d="m384 350.563792c.280152.12404.565052.24808.849953.363261 5.963912 2.383343 13.328585 7.380389 13.874643 8.288541.337132.55375 4.605888 2.972534 7.901235 4.784406 1.377018-.24365 2.374169-.469581 2.374169-.469581s-2.431149-7.53101-2.739791-7.77909-10.949668-6.202008-10.949668-6.202008l-8.461538-.549321c-1.129348.161457-2.149169.721227-2.849003 1.563792z" fill="#000" opacity=".1"/><path d="m367.361074 335.038333c.782793 1.904224 7.331073 9.223879 7.331073 9.223879s4.143651 5.359696 10.031009 7.858411c5.887358 2.498714 13.152809 7.737655 13.696546 8.689767.346866.613068 5.038941 3.413671 8.343549 5.336474l.740607.42729 1.640586.92889.867166.496956s2.01089-1.602336 4.017091-3.21396c2.006202-1.611624 3.942093-3.186093 3.974905-3.251116.056248-.176489.839042-2.201469.656234-2.322225-.093748-.060378-.506238-.88709-1.260907-1.85778-.807572-1.062366-1.85612-1.921523-3.060864-2.508004-2.765559-1.249357-3.96553-4.096405-3.96553-4.096405s-.262493-.185778-.660921-.436579c-.818858-.560931-1.736062-.965718-2.704623-1.193624-1.321843-.162555-3.782721-2.842403-3.782721-2.842403s-1.682772-1.072869-2.343694-2.438337c-.660922-1.365469-9.946636-7.644766-10.809115-8.234611l22.583832 14.374575 5.404557 3.441538 7.752939-6.009919 12.187207-11.903728s-1.640586-.078956-4.021778-.181133c-5.929545-.255445-16.45273-.654868-17.783948-.357623-1.07448.249143-2.183025.321323-3.281171.213645 0 0-2.999928.134689-4.982692-.901024-1.982765-1.035712-5.109253-1.52338-5.470181-2.289714-.360929-.766335-10.991924-4.463317-10.991924-4.463317s-14.474652-7.6169-19.64484-3.093205-5.240499 8.699057-4.462392 10.603282z" fill="#65617d"/><path d="m414 289.553076 1.952466 6.100315 2.504038 13.754615 9.191236.591994 2.665116-4.162459 2.655355-4.162459s1.654715-5.549946 2.845719-10.933393c1.049451-4.754453 1.737696-9.370158.595503-9.869653-1.015283-.462496-1.684003-2.048855-2.118426-3.769338-.053693-.212748-.107386-.430121-.151316-.642869-.304796-1.459655-.508612-2.93662-.610146-4.421456 0 0-19.265962-.948116-16.595964 6.58131.481628 1.284425.727612 2.637501.727293 4.000586-.004654.340038-.027462.679635-.068336 1.01749-.27694 2.359434-1.578727 4.502901-3.592538 5.915317z" fill="#ee8e9e"/><path d="m411 289.003737.67786 10.504101 1.527572 8.948631 1.713745 4.141671 1.527572 22.666743s14.750617 1.672598 18.340411-.028111c.257637-.108034.481605-.280977.649219-.501311 4.329712-6.418652 2.911934-25.018687 2.911934-25.018687l1.651687-12.008033-1.102716-6.231246-2.65893-.281109-2.047901-.210831s-.477367.557532-1.131358 1.405544c-1.813992 2.342574-5.150782 6.971499-4.92642 8.90178.305514 2.642423-.367572 5.341068-1.432099 5.762731-1.064527.421664-1.909465 1.143176-2.076543.421664-.167078-.721513-.367572-.899549-.186173-1.920911s-.797202-4.146355-.797202-4.146355-1.651687-3.6591-1.527572-5.22394c.124116-1.564839-.181399-3.35925-.673086-3.780914-.491687-.421663-1.16-.838641-.611029-2.759551.548971-1.920911-2.410699-5.645603-2.410699-5.645603z" fill="#e3e8f4"/><path d="m429.025633 315.419953.656141 17.687586 3.763912 1.892461c.27308-.10644.511324-.274949.691746-.48927 4.613336-6.328205 3.102685-24.652766 3.102685-24.652766l1.759883-11.830188-1.174951-6.138959-2.833107-.276946c1.093569-4.744999 1.810747-9.351526.620537-9.850028-1.057964-.461576-1.754797-2.044781-2.207484-3.761843l-2.034547 12.513321s.16785 1.130861.228887 2.307879c.082663.736988.027635 1.481352-.162764 2.201717-.457773 1.06624-.132246 2.958701-.132246 2.958701-1.174951 1.878614-1.764969 5.358895-2.034547 8.719167-.386564 4.458823-.244145 8.719168-.244145 8.719168z" fill="#000" opacity=".1"/><path d="m433.785844 278s3.035606.374568 3.998917 1.638734c.963312 1.264166 3.491417 1.437403 3.491417 1.437403s2.889934.93642 2.819448 1.198617.841135.60399 2.645582 1.081564 4.821257 2.219314 4.821257 2.640702c0 .421389 4.778964 5.098803 4.778964 5.581059s1.447317 2.280181 1.264053 5.459325c-.183264 3.179143-.361829 7.201064.361829 7.861239.723658.660176 0 3.240011 0 3.240011-.397357.572274-.421261 1.323452-.061088 1.919659.601482 1.081565-.117477 5.581059-.117477 5.581059l.056389 4.682096s-.66257 2.940357.122176 3.062091c.784746.121735-.122176 1.442086-.122176 1.442086s-.66257 2.397233.183264 3.478798c.845834 1.081564 1.085488 5.698111 1.085488 5.698111l12.884878 18.662836s.183264 3.41793-3.914334 3.361745-4.03651.777228-3.914334 1.559138-1.141877 1.620005-1.141877 1.620005-1.625881.838096-.66257 1.872839c.963312 1.034743 3.73107 3.361745-.845834 4.920883-.539392-.743152-.984483-1.549912-1.325141-2.401915-.388297-1.059031-.710024-2.141129-.963311-3.240011 0 0-.422918-4.560362-1.264053-5.150306s-.723658-3.478798-.723658-3.478798 1.207663-2.341048-.469908-3.300877c-1.677572-.95983-26.136285-14.462996-26.136285-14.462996l-.61088-17.965203s-.422917-13.259697 2.105188-17.703007c0 0-.300741-1.919659.122176-3.001223.422917-1.081565-.061088-4.560362-.061088-4.560362z" fill="#3f3d56"/><path d="m417.266798 283.696205s-6.131004-1.247021-7.77672-.403172c-1.645716.843848-4.875314 1.500175-5.365223 1.983044-.48991.482869-1.702793.117201-2.801522 2.944095-1.098729 2.826893-1.217639 5.705355-2.620779 7.032073-1.403139 1.326717-2.135625 2.222135-2.197458 3.183185s.1855 1.20014-.361487 1.504863c-.546986.304723-1.341306 1.561121-1.098729 2.039301.242577.478181 12.675816 11.054419 12.675816 11.054419s.613576 4.027034 1.160562 5.049029c.546987 1.021994-.608819 15.076764-1.826459 16.042502-1.217639.965738 8.228579.871977 8.228579.871977s.42332-9.22608.789563-9.704261-.242577-10.313707-.242577-10.313707-.061833-8.410359.732486-10.632494c.79432-2.222135.703948-9.6105.703948-9.6105s.699192-4.434894 1.550588-5.470952c.851396-1.036059-1.550588-5.569402-1.550588-5.569402z" fill="#000" opacity=".1"/><path d="m416.265423 283.694313s-6.131108-1.242499-7.77813-.403226c-1.647021.839273-4.864901 1.495688-5.350439 1.964556s-1.708903.121906-2.808504 2.944489c-1.099601 2.822584-1.218606 5.710809-2.622858 7.033016s-2.132559 2.222434-2.194442 3.183612c-.061882.961179.180887 1.200302-.366533 1.500377-.547421.300075-1.34237 1.56133-1.099601 2.044263.242769.482934 12.700153 11.074657 12.700153 11.074657s.609302 4.022885 1.161483 5.045016c.55218 1.022132-.614063 15.083476-1.832668 16.044654-1.218606.961179 8.235106.872094 8.235106.872094s.428416-9.222628.79495-9.705562-.247529-10.31509-.247529-10.31509-.057122-8.411487.733067-10.63392.675945-9.635232.675945-9.635232.699746-4.435489 1.551818-5.466998-1.551818-5.546706-1.551818-5.546706z" fill="#3f3d56"/><path d="m417.25094 278.50973c.469367 1.263091.709089 2.593692.708779 3.934137 6.167998 1.755125 12.791871-.746588 16.040281-6.058115-.297036-1.435411-.495663-2.887843-.594613-4.348017 0 0-18.775501-.932367-16.154447 6.471995z" fill="#000" opacity=".1"/><path d="m408 268.502642c.001035 7.180852 5.623886 13.104044 12.795232 13.478684s13.380819-4.930418 14.130136-12.07207-4.223825-13.619923-11.316769-14.741808c-7.092944-1.121884-13.822766 3.50534-15.314231 10.529607-.195843.922349-.294504 1.862678-.294368 2.805587z" fill="#ee8e9e"/><path d="m398.785855 300-3.208907 1.010195s.29797 1.186283-.646365 1.779425c-.565872.406586-.877742 1.08465-.820563 1.784059 0 0-.35298 1.306766-1.173543 1.603337s-1.352325 2.256719-1.352325 2.256719l-2.70465 3.146432s-.994761.829472-.820563 1.246524c.174198.417053-1.058939.532901-1.058939.532901l.614276 10.574606 5.583497 1.065802 3.465619-.356812 2.819254-1.065802 2.466273-1.487488 1.118534-2.910102 4.932547-7.599629z" fill="#3f3d56"/><path d="m387.512019 315.815085s-6.72602-10.99113-11.740431-5.057089 2.038448 15.546408 3.69415 15.234603 9.534262-.813616 9.534262-.813616z" fill="#ee8e9e"/><path d="m364.065 300.930255 35.398822.022234c.849763.000534 1.538499.68927 1.539032 1.539033l.016834 26.825526c.000533.850518-.688515 1.540432-1.539034 1.540966-.000644 0-.001289 0-.001933 0l-35.398821-.022234c-.849764-.000534-1.5385-.68927-1.539033-1.539033l-.016833-26.825525c-.000534-.850519.688515-1.540433 1.539033-1.540967z" fill="#3f3d56" transform="matrix(.89068936 .45461243 -.45461243 .89068936 185.341126 -139.027644)"/><path d="m365.641063 303.64549 32.342337.020314.015308 24.394137-32.342337-.020314z" fill="#2e855a" transform="matrix(.89068936 .45461243 -.45461243 .89068936 185.327546 -139.054004)"/><circle cx="366.5" cy="308.5" fill="#e6e8ec" r="1"/><circle cx="397" cy="323" fill="#e6e8ec" r="1"/><path d="m382.000149 317.646806c-.058216 7.764895 16.911963 9.407823 16.911963 9.407823l4.337147.651663 1.940558.293708.810183-7.590507s-.887805-.123908-1.998775-.367135c-1.644623-.362545-3.774385-.991263-4.220713-1.867797-.742264-1.468538-17.717294-8.292651-17.780363-.527755z" fill="#ee8e9e"/><path d="m409 266.630557c.378029.02999.73263.192669.999443.458511.464857.481435.464857 1.334264 1.083116 1.627711.223024.098312.471166.127107.711232.082532 1.585162-.220085 2.500931-1.985349 4.021013-2.47137.888458-.224764 1.828069-.143893 2.663631.229255.340333.101729.645837.29363.883228.554797.511343.651085.153403 1.609371.39048 2.393424.3254 1.091254 1.645594 1.526839 2.789142 1.668977 1.143549.142138 2.431203.220085 3.198217 1.072914.512962.648914.719427 1.483528.567125 2.292551-.067292.275753-.067292.56332 0 .839074.316103.884924 1.859428.751956 2.263854.055021.297508-.504361.209186-.917021.901823-1.063744.500003-.041775 1.002522.043465 1.459651.247596 1.212155.410068 2.488987.602627 3.76999.568552 2.23547-4.686989 1.545249-10.22347-1.774849-14.236643-3.320099-4.013173-8.680703-5.790632-13.784388-4.570601-5.103685 1.22003-9.044462 5.220974-10.133411 10.288124z" fill="#000" opacity=".1"/><path d="m424.300285 274.381007c-.065333-.2792-.065333-.569937 0-.849137.149705-.814276-.053239-1.65431-.557453-2.307438-.753934-.858367-2.019629-.922975-3.143675-1.079881-1.124047-.156905-2.421727-.581474-2.741577-1.679814-.233034-.789144.118802-1.753653-.383821-2.40435-.232147-.26529-.532716-.460212-.868166-.563015-.821313-.375571-1.744899-.456967-2.618206-.230744-1.494159.489177-2.39431 2.265904-3.95244 2.487418-.235972.044865-.479882.015883-.699102-.083068-.589439-.295352-.612285-1.153719-1.064646-1.63828-.71281-.761455-2.060752-.267663-2.933487-.835293-.566592-.36919-.785919-1.08911-.945844-1.749037-.306143-1.287551-.557454-2.635094-.25588-3.922644.507191-2.201296 2.453711-3.6919 3.696559-5.588614 1.160601-1.749038 1.827718-3.964178 3.550342-5.127126 1.722624-1.162949 3.975287-.895286 5.940083-.304582.905807.32213 1.836586.567566 2.782701.733765 1.580976.19844 3.17109-.235359 4.765774-.290737 2.250021-.071353 4.460854.606459 6.291919 1.929018.412465.273416.762863.632027 1.028092 1.052191.265577.593932.420475 1.23222.456929 1.882869.188091 1.223525.608562 2.398798 1.238279 3.461157.488914.830677 1.110339 1.582902 1.55356 2.445883.494909.843207.645663 1.847778.420375 2.80123-.150786.484562-.456929.922975-.562023 1.425996-.26045 1.153719.493484 2.256674 1.009814 3.32271.497582.971991.733917 2.058837.685394 3.15196-.059594 1.100796-.569336 2.127106-1.407342 2.833533-.867363.615853-1.905337.938912-2.965473.922975-1.284487.039621-2.565278-.159028-3.778807-.586089-.449333-.205456-.943281-.29125-1.434758-.249203-.680825.138446-.594008.563015-.886443 1.070651-.39296.71992-1.909965.853752-2.220678-.032304z" fill="#3f3d56"/><path d="m418.345592 353 7.641841-5.978439 12.012567-11.841376s-1.617076-.078542-3.964147-.180185c-.466147.419962-.764787.994257-.84088 1.617043-.055442 1.446099-3.234152.101643-4.906671.924025s-9.762521 11.213039-11.185548 11.148357c-1.423028-.064682-2.545741-.720739-3.137128.286448l-.041582.064681c-.242439.273276-.566451.461199-.924044.535935z" fill="#000" opacity=".1"/><path d="m401 351.765809 3.97771 12.304131.622266 1.93006 1.914662-.501073 4.173963-1.113496 18.591368-4.950418c2.336986-.097926 4.623853-.68849 6.701318-1.730558 3.516735-1.906187 7.538863-2.75566 11.554985-2.440412 2.455554.222699 5.188734-.802645 7.457609-4.866906 0 0 5.150441-14.744543-7.854901-18.966548-13.005342-4.222006-13.622821 2.24555-13.622821 2.24555l-.177106.10671c-.478665.310851-1.914662 1.2898-1.972102 2.482168-.05744 1.456824-3.350658.102071-5.083428.927914-1.732769.825842-10.147709 11.264867-11.621998 11.190634-1.47429-.074233-2.637447-.723772-3.250139.287653l-.04308.064954c-.454732.607784-1.823716.746971-2.723607.774808-.478665 0-.852024 0-.852024 0l-.11488.032477-.957331.273734z" fill="#65617d"/><path d="m404 327.704729 1.410935.295271.589065-7.630911s-.645503-.124568-1.453263-.369089c.21164 1.06113-.271605 5.176471-.546737 7.704729z" fill="#000" opacity=".1"/><path d="m453.504649 291.185618s5.664001-1.629365 4.276511 14.306385c-1.38749 15.935749-11.879196 26.008612-11.879196 26.008612s-12.055008 5.250698-17.476674 4.407761c-3.105766-.497106-6.234706-.839733-9.375061-1.026594-1.706463-.855309-3.573876-1.349256-5.483437-1.450417-3.041074-.117729-9.436833-1.991969-9.560377-2.594739-.123544-.602771 1.587061-9.474802.855302-10.138791 0 0 8.524511.348476 9.375062.941829.85055.593352 2.071731.174238 2.984054 0 .912322-.174239 3.715812-2.585321 9.256269-.470915 0 0 1.900672.178948 2.618175-.301385.717504-.480333 1.900672-.122438 1.900672-.122438.470364-.160442.916397-.383839 1.325718-.663989.180564-.240167 1.644081 0 1.644081 0 .175865.085413.381328.087178.558661.004797s.307401-.240017.353661-.428621c.190259-.494972.479577-.946689.85055-1.327979 0 0 1.644081-9.173416 4.751679-12.611092 0 0 .912322-.786428.669986-1.751802-.242335-.965375 5.046283-14.711372 12.354364-12.780622z" fill="#000" opacity=".1"/><path d="m453.506232 290.185618s5.662006-1.629365 4.275005 14.306385c-1.387002 15.935749-11.875013 26.008612-11.875013 26.008612s-12.055512 5.250698-17.470518 4.407761-9.39551-1.026594-9.39551-1.026594c-1.704413-.854679-3.569485-1.348609-5.476756-1.450417-3.044753-.117729-9.43351-1.991969-9.55701-2.594739-.1235-.602771 1.581752-9.474802.850251-10.138791 0 0 8.521509.348476 9.37651.941829.855001.593352 2.071002.169529 2.983003 0s3.714504-2.59003 9.25301-.470915c0 0 1.900002.178948 2.617253-.301385.71725-.480333 1.900002-.122438 1.900002-.122438.469017-.159734.913419-.383193 1.320501-.663989.1805-.240167 1.643502 0 1.643502 0 .175804.085413.381193.087178.558464.004797.17727-.082381.307293-.240017.353537-.428621.194457-.493934.484966-.94515.855001-1.327979 0 0 1.643501-9.173416 4.750005-12.611092 0 0 .916751-.786428.66975-1.751802-.247-.965375 5.063506-14.711372 12.369013-12.780622z" fill="#3f3d56"/><path d="m408 349.313093 9.147728 10.686907c.037845-.031309.059471-.052182.059471-.062619.070284-.198292.967756-2.473434.76231-2.609108-.205445-.135673-1.80035-3.48055-4.990161-4.88425-1.618039-.764666-2.97608-1.959555-3.914276-3.444023z" fill="#000" opacity=".1"/><path d="m408.194027 366.503052.981932.496948s2.27702-1.60231 4.548733-3.213909c2.271712-1.611599 4.463809-3.186043 4.500963-3.251065.063693-.176486.950085-2.201435.743083-2.322189-.106154-.060376-.573235-.887076-1.427782-1.857751-6.093285-1.495489-2.213327 2.20608-1.698476 2.373277 0 0-7.430836-1.486201-7.823608 5.573254-.053044.73736.005854 1.477619.175155 2.201435z" fill="#000" opacity=".1"/><path d="m416.351208 369.809581 1.165395.66973 11.81157.303991c1.326046.800102 2.727318 1.469828 4.183961 1.999689.19337.060575.391469.10506.59225.132996 1.094766.084818 2.193605.105437 3.290809.061748.90748 0 1.604807-.061748 1.604807-.061748s-.558817-14.819551-.955242-16.377503c-.200601-.745728-1.194053-.579483-2.1684-.208994-.733632.295917-1.441341.651791-2.115861 1.063968 0 0-5.019798.474985-5.817425.916722s-3.056775-.246993-4.465757 0c-1.408983.246993-3.916493-1.6482-3.916493-1.6482-6.858639-2.251432-2.999461 1.947441-2.512287 2.127935 0 0-6.686695-1.519953-7.035359 5.699828-.348663 7.219781 6.338032 5.319838 6.338032 5.319838z" fill="#3f3d56"/><path d="m432.006242 364.088603c.138792 3.075194 2.724436 6.893004 4.266569 8.911397.976684 0 1.727189-.061885 1.727189-.061885s-.601432-14.852327-1.028089-16.413726c-.215898-.747376-1.285111-.580764-2.333761-.209456-1.300533 2.213568-2.744997 5.298283-2.631908 7.77367z" fill="#565387"/><path d="m432.006242 364.088603c.138792 3.075194 2.724436 6.893004 4.266569 8.911397.976684 0 1.727189-.061885 1.727189-.061885s-.601432-14.852327-1.028089-16.413726c-.215898-.747376-1.285111-.580764-2.333761-.209456-1.300533 2.213568-2.744997 5.298283-2.631908 7.77367z" fill="#000" opacity=".1"/><path d="m430.204046 364.486855c.834054 2.961817.824242 6.284948 2.158729 8.295941.198633.060629.402123.105154.608369.133116 1.124561.084894 2.253307.105531 3.380372.061803.932179 0 1.648484-.061803 1.648484-.061803s-.574026-14.832858-.98124-16.39221c-.206061-.746397-1.226551-.580003-2.227416-.209181-.753598.296182-1.480569.652376-2.173447 1.064923 0 0-3.483403 3.313622-2.413851 7.107411z" fill="#000" opacity=".05"/><path d="m389 335s5.955507 2.202643 11 10z" fill="#000" opacity=".1"/><g fill="#000" opacity=".1" transform="translate(404 258)"><path d="m31.7839726 4.44297297c0 .04594595 0 .0872973-.0316438.12864865-.0561825.16725715-.1210685.33136232-.1943836.49162162.0570799-.21316543.132721-.42074181.2260274-.62027027z"/><path d="m.36164384 1.58972973c.10487802-.41310725.256578-.81244595.45205479-1.19-.03164383.10108108-.05876712.20216216-.08589041.30783784-.29383562 1.28189189-.04972603 2.62351351.25767123 3.90081081.15821918.66162162.37520548 1.37837838.93575343 1.74594594.86342465.56054054 2.1969863.07351352 2.90219178.83162163.45205479.45945946.45205479 1.33702702 1.05328767 1.63108108.21688103.09851588.45818919.1273701.69164383.0827027 1.53698631-.22054054 2.4320548-1.98945946 3.91027394-2.47648649.8639899-.22522885 1.7777233-.14419043 2.590274.22972973.3315719.10300957.6287693.29696742.8589041.56054054.4927397.64783784.1491781 1.60810811.3752055 2.39378379.3209589 1.0935135 1.6047945 1.5254054 2.7123288 1.6724324 1.1075342.1470271 2.3642465.2205406 3.110137 1.0751352.4988355.6502578.6996141 1.4865997.5515068 2.2972973-.0677574.2760398-.0677574.564771 0 .8408108.3073973.8821621 1.8082192.7535135 2.2015069.0551351.289315-.5054054.1989041-.9189189.8769863-1.0705405.4865101-.0380008.9746142.0488955 1.419452.2527027 1.2034965.4184503 2.471708.6114866 3.7430137.5697297 1.0488258.015867 2.0757266-.3057729 2.9338356-.9189189.3747902-.3020492.6828367-.6808908.9041096-1.1118919-.1962365.7839542-.6352282 1.4830269-1.2521918 1.994054-.858109.613146-1.8850098.9347859-2.9338356.918919-1.2767187.0337707-2.5486335-.1718231-3.7520548-.6064865-.4445394-.2045528-.9332186-.2899697-1.419452-.2481081-.6735617.1378378-.5876713.5605405-.8769863 1.0659459-.3932877.6983784-1.8941096.8316216-2.2015069-.0505405-.0646363-.277973-.0646363-.5674324 0-.8454054.1481074-.8106976-.0526713-1.6470395-.5515068-2.2972973-.7458904-.8545946-1.9980822-.9189189-3.110137-1.0751352-1.1120548-.1562162-2.3958904-.5789189-2.7123288-1.6724324-.2305479-.78567567.1175343-1.74594594-.379726-2.39378378-.2304401-.26321032-.5275297-.45709785-.8589041-.56054054-.8125507-.37392017-1.7262841-.45495859-2.590274-.22972973-1.47821918.48702703-2.37328767 2.25594594-3.91027397 2.47648649-.23345464.04466739-.47476281.01581318-.69164384-.08270271-.58315068-.29405405-.60575342-1.14864865-1.05328767-1.63108108-.70520548-.75810811-2.03876712-.26648649-2.90219178-.83162162-.56054794-.36756757-.77753424-1.08432432-.93575342-1.74135135-.31191781-1.24513514-.5560274-2.58675676-.26219178-3.86864865z"/></g><path d="m439.15228 308.759601c-1.175921 1.419189-2.50196 2.730932-3.557787 4.230706s-1.771388 3.254733-1.556219 5.009693c1.075842-.984926 1.566227-2.350392 2.24676-3.58155 1.145898-2.095207 2.862242-3.872551 4.313379-5.820019.275216-.367109 2.046604-2.493654 1.150902-2.596624-.74058-.076108-2.196721 2.274285-2.597035 2.757794z" fill="#000" opacity=".1"/></g></g></svg>