<svg height="534" viewBox="0 0 927 534" width="927" xmlns="http://www.w3.org/2000/svg"><path d="m788.02261 462.3581-59.11154 27.97646 52.31628-39.1194a295.2204 295.2204 0 0 0 -28.56463-37.58828l-256.35954 63.71942 231.56493-88.334a295.17677 295.17677 0 0 0 -33.62639-25.63066l-390.63159 62.92047a292.75539 292.75539 0 0 0 -64.11648 182.69789h588.00635a292.5979 292.5979 0 0 0 -39.47739-146.6419z" fill="#f2f2f2" transform="translate(-136.5 -183)"/><path d="m662.27137 345.21756a294.20788 294.20788 0 0 0 -354.71728 76.24894c92.35028-20.2348 253.13949-55.2624 354.71728-76.24894z" fill="#f2f2f2" transform="translate(-136.5 -183)"/><path d="m608.97446 350.89506c-10.06309 29.79429-25.49351 56.94136-56.94135 56.94136s-55.16944-25.54348-56.94136-56.94136c-2.26415-40.12023 24.76807-57.10754 56.94136-56.94136 38.00751.1963 68.88383 21.58278 56.94135 56.94136z" fill="#2f2e41" transform="translate(-136.5 -183)"/><path d="m368.55512 160.3202h93.13746v135.7331h-93.13746z" fill="#2f2e41"/><path d="m537.73037 421.25411s2.979 42.69946-3.972 49.65054 61.56663 12.90914 60.57363 4.96505-13.90215-59.58064-9.9301-70.50376-46.67153 15.88817-46.67153 15.88817z" fill="#ffb8b8" transform="translate(-136.5 -183)"/><path d="m537.73037 421.25411s2.979 42.69946-3.972 49.65054 61.56663 12.90914 60.57363 4.96505-13.90215-59.58064-9.9301-70.50376-46.67153 15.88817-46.67153 15.88817z" opacity=".1" transform="translate(-136.5 -183)"/><path d="m472.2 530.49-35.68 120.65-1.42991 4.86h-60.04c23.88985-73.95 82.94991-183 82.94991-183l9.22-2.09z" fill="#6c63ff" transform="translate(-136.5 -183)"/><path d="m472.2 530.49-35.68 120.65-1.42991 4.86h-60.04c23.88985-73.95 82.94991-183 82.94991-183l9.22-2.09z" opacity=".1" transform="translate(-136.5 -183)"/><circle cx="413.1465" cy="208.46379" fill="#ffb8b8" r="44.68548"/><path d="m597.311 462.96056s-15.88818 14.89516-33.76237 11.91613-25.378-24.71508-25.378-24.71508l-17.32145 12.79895s-4.96504 35.74844 17.8742 39.72044 55.6086 4.96505 62.55968 0-3.97206-39.72044-3.97206-39.72044z" fill="#3f3d56" transform="translate(-136.5 -183)"/><path d="m651.92993 515.58-2.84985 9.26-40.23008 131.16h-173.14a40.57638 40.57638 0 0 0 .81006-4.86c2.24-18.67.91992-65.77.91992-69.01 0-3.98 16.87012-102.28 20.86011-109.24a6.45893 6.45893 0 0 1 2.36987-1.98c4.63013-2.66 14.87012-5.64 25.91016-8.27.01-.01.01-.01.0199-.01 6.17-1.5 12.61-2.88 18.45007-4.05h.01c5.73-1.15 10.86987-2.09 14.62988-2.71a59.89454 59.89454 0 0 1 6.13013-.85c.91992 0 1.58984 1.09 2.03992 2.76 1.51 5.44.93 17.09.93 17.09a30.16985 30.16985 0 0 0 4.46 4.18 56.653 56.653 0 0 0 12.46 7.43 73.89591 73.89591 0 0 0 11.81998 4.03h.01a86.36614 86.36614 0 0 0 12.95 2.25 39.96486 39.96486 0 0 0 10.69995-.21h.02c10.53-1.74 14.39-8.28 16.19006-13.5.31995-.95.56995-1.86.78992-2.69 0-.01.01-.03.01-.04.66-2.55.94006-4.34 1.64014-4.31h.00993c1.80993.17 24.64 19.74 39.47009 32.59 7.03992 6.09 12.27 10.69 12.58984 10.97z" fill="#6c63ff" transform="translate(-136.5 -183)"/><path d="m649.08008 524.84-40.23008 131.16h-16.31a10.73287 10.73287 0 0 0 1.79-7.34c-.52-3.66 10.80993-40.95 21.72-75.65 9.91992-31.53 19.49-60.89 19.49-60.89l9.42993 4.46s1.68998 3.19 4.11015 8.26z" opacity=".1" transform="translate(-136.5 -183)"/><path d="m677.75 643.68c-1.96.49-1.75 6.31-1.86 12.32h-77.05992a11.35833 11.35833 0 0 0 2.46-8.34c-.51-3.51 7.09-39.7 14.76-74.65 6.03-27.64 12.10986-54.51 14.22-63.86.52-2.26.8-3.48.8-3.48l.90991.43.02.01 19.90991 9.46.02.01s30.78 58.6 20.86011 72.5c-9.94006 13.9-9.94006 13.9-5.97 20.86 3.96999 6.94 14.88999 33.75 10.92999 34.74z" fill="#6c63ff" transform="translate(-136.5 -183)"/><circle cx="415.53311" cy="100.46451" fill="#2f2e41" r="22.47685"/><path d="m525.06088 271.47685a22.4778 22.4778 0 0 1 20.22912-22.36335c-.73944-.07344-1.48885-.1135-2.24769-.1135a22.47685 22.47685 0 0 0 0 44.9537c.75884 0 1.50825-.04006 2.24769-.1135a22.47786 22.47786 0 0 1 -20.22912-22.36335z" fill="#2f2e41" transform="translate(-136.5 -183)"/><path d="m535.49959 335.16345s-.46933-2.61267-18.825 4.27072-29.35874 57.67983-20.18088 87.50783c3.69864 12.02058.68986 20.68745-4.22089 26.75146-18.42815 22.75589-11.17375 56.93462 15.66826 68.63649q1.13648.49545 2.31941.97954l11.47232 6.88339s-14.62474-19.24308-7.306-43.85853a126.20612 126.20612 0 0 0 2.27745-64.609c-.83966-3.60476-1.79345-7.32058-2.87689-11.11261-9.17786-32.12249-4.71414-28.41283 27.40835-60.53532 0 0 18.35572 13.76678 34.417 20.65017s29.828 13.76679 18.35572 36.71143-39.00589 43.59481-20.65018 73.42284 20.65018 18.35571 18.35571 29.828l-2.29446 11.47232 13.76678-13.76678-9.17785 18.35571s29.828 0 39.00588-22.94464l4.58893 4.58893s18.35575-32.1224-16.06125-61.9504c0 0-11.47232-6.88339 4.58893-29.828s3.726-72.27561-16.92416-81.45347-73.70718-.00008-73.70718-.00008z" fill="#2f2e41" transform="translate(-136.5 -183)"/><path d="m413.147 296.659-38.231 66.218h8.937v8.937l43.45-75.155z" fill="#3f3d56"/><path d="m757 429h155v61h-155z" fill="#f2f2f2"/><path d="m776.5 507h116v10h-116z" fill="#f2f2f2"/><path d="m776.5 525h116v8h-116z" fill="#f2f2f2"/><circle cx="16" cy="12" fill="#6c63ff" r="4"/><circle cx="27" cy="12" fill="#6c63ff" r="4"/><circle cx="38" cy="12" fill="#6c63ff" r="4"/><g fill="#2f2e41"><path d="m1063.5 717h-927v-534h927zm-925-2h923v-530h-923z" transform="translate(-136.5 -183)"/><path d="m1 20.08643h925v2h-925z"/><path d="m12 37h30v2h-30z"/><path d="m12 45h30v2h-30z"/><path d="m12 53h30v2h-30z"/><path d="m775.5 238h-372v-18h372zm-370-2h368v-14h-368z" transform="translate(-136.5 -183)"/><path d="m760.5 231.5a4 4 0 1 1 4-4 4.00427 4.00427 0 0 1 -4 4zm0-6a2 2 0 1 0 2 2 2.00229 2.00229 0 0 0 -2-2z" transform="translate(-136.5 -183)"/><path d="m763.52978 228.84361h2.00002v5.49003h-2.00002z" transform="matrix(.69630838 -.71774274 .71774274 .69630838 -70.53974 436.06727)"/><path d="m999.5 238h-20v-18h20zm-18-2h16v-14h-16z" transform="translate(-136.5 -183)"/><path d="m1024.5 238h-20v-18h20zm-18-2h16v-14h-16z" transform="translate(-136.5 -183)"/><path d="m1049.5 238h-20v-18h20zm-18-2h16v-14h-16z" transform="translate(-136.5 -183)"/></g><path d="m665 485h18v16h-18z" fill="#ff6584"/><path d="m690 485h18v16h-18z" fill="#f2f2f2"/><path d="m715 485h18v16h-18z" fill="#f2f2f2"/><path d="m868.5 657h-682v-388h682zm-680-2h678v-384h-678z" fill="#2f2e41" transform="translate(-136.5 -183)"/><path d="m290.11364 621.37587v9.39546l-15.60682-9.525a.54752.54752 0 0 0 -.825.47045v20.59091a.54752.54752 0 0 0 .825.47045l15.60682-9.525v9.39545a.27353.27353 0 0 0 .27272.27273h4.84091a.27353.27353 0 0 0 .27273-.27273v-21.27272a.27353.27353 0 0 0 -.27273-.27273h-4.84091a.27353.27353 0 0 0 -.27272.27273z" fill="#3f3d56" transform="translate(-136.5 -183)"/><path d="m248.49318 642.92133h-4.35a.54854.54854 0 0 1 -.55227-.54546v-20.72727a.54854.54854 0 0 1 .55227-.54546h4.35a.54854.54854 0 0 1 .55227.54546v20.72727a.54854.54854 0 0 1 -.55227.54546zm12 0h-4.35a.54854.54854 0 0 1 -.55227-.54546v-20.72727a.54854.54854 0 0 1 .55227-.54546h4.35a.54854.54854 0 0 1 .55227.54546v20.72727a.54854.54854 0 0 1 -.55227.54546z" fill="#3f3d56" transform="translate(-136.5 -183)"/><path d="m215.5 621.66905v20.68637a.53263.53263 0 0 0 .79773.49091l16.39773-10.34318a.586.586 0 0 0 0-.975l-16.39773-10.34315a.52764.52764 0 0 0 -.79773.48405z" fill="#6c63ff" transform="translate(-136.5 -183)"/><path d="m82.5 424h617v4h-617z" fill="#2f2e41"/><path d="m82.5 424h107.5v4h-107.5z" fill="#6c63ff"/><path d="m51 487h283v11h-283z" fill="#f2f2f2"/><path d="m51 512h62v11h-62z" fill="#f2f2f2"/><path d="m757 107h155v61h-155z" fill="#f2f2f2"/><path d="m776.5 185h116v10h-116z" fill="#f2f2f2"/><path d="m776.5 203h116v10h-116z" fill="#f2f2f2"/><path d="m776.5 221h116v10h-116z" fill="#f2f2f2"/><path d="m757 268h155v61h-155z" fill="#f2f2f2"/><path d="m776.5 346h116v10h-116z" fill="#f2f2f2"/><path d="m776.5 364h116v10h-116z" fill="#f2f2f2"/><path d="m776.5 382h116v10h-116z" fill="#f2f2f2"/><path d="m798.36274 608.82955-2.0642-1.55853c-7.33987-5.64347-12.17948-9.29973-12.62069-14.34312a7.2022 7.2022 0 0 1 6.61739-7.9349 7.83435 7.83435 0 0 1 6.18061 2.268 7.83407 7.83407 0 0 1 5.6929-3.30679 7.20221 7.20221 0 0 1 7.89467 6.66534c.44122 5.04345-3.69007 9.48452-9.93846 16.31667z" fill="#ff6584" transform="translate(-136.5 -183)"/><path d="m822.79109 583.12181-1.13147-2.32588c-3.97715-8.3609-6.629-13.816-4.73206-18.50985a7.20219 7.20219 0 0 1 9.49882-4.06508 7.83431 7.83431 0 0 1 4.47692 4.82713 7.834 7.834 0 0 1 6.57369-.36135 7.20221 7.20221 0 0 1 4.00748 9.52327c-1.89691 4.69391-7.59429 6.77493-16.26363 10.025z" fill="#ff6584" transform="translate(-136.5 -183)"/><path d="m812.79109 650.12181-1.13147-2.32588c-3.97715-8.3609-6.629-13.816-4.73206-18.50985a7.20219 7.20219 0 0 1 9.49882-4.06508 7.83431 7.83431 0 0 1 4.47692 4.82713 7.834 7.834 0 0 1 6.57369-.36135 7.20221 7.20221 0 0 1 4.00748 9.52327c-1.89691 4.69391-7.59429 6.77493-16.26363 10.025z" fill="#ff6584" transform="translate(-136.5 -183)"/></svg>