<svg height="661.371pt" width="690.4pt" xmlns="http://www.w3.org/2000/svg"><path d="m862 34.082c0 43.3543-189.189 124-427.5 124s-434.5-75.6457-434.5-119c0-43.3544 196.189-38.00004 434.5-38.00004s427.5-10.35435 427.5 33.00004z" fill="#3f3d56" transform="translate(0 668.632)"/><path d="m862 34.082c0 43.3543-189.189 124-427.5 124s-434.5-75.6457-434.5-119c0-43.3544 196.189-38.00004 434.5-38.00004s427.5-10.35435 427.5 33.00004z" opacity=".1" transform="translate(0 668.632)"/><ellipse cx="345.2pt" cy="62.8pt" fill="#3f3d56" rx="345.2pt" ry="62.8pt" transform="translate(0 628.714)"/><path d="m0 0v209.944l35.117 57.231 2.673 4.353h138.563l2.799-271.528z" fill="#2f2e41" transform="translate(594.859 440.238)"/><path d="m0 0v209.944l35.117 57.231 2.155-267.175z" opacity=".1" transform="translate(594.859 440.238)"/><path d="m179.153 0v209.944l-35.117 57.231-2.673 4.353h-138.564l-2.799-271.528z" fill="#2f2e41" transform="translate(81.195 434.639)"/><path d="m37.273 0v209.944l-35.117 57.231-2.156-267.175z" opacity=".1" transform="translate(223.075 434.639)"/><path d="m753 41.988v12.597h-753v-18.195l69.981-36.39h621.435z" fill="#2f2e41" transform="translate(63 388.452)"/><path d="m753 5.598v12.597h-753v-18.195z" opacity=".1" transform="translate(63 424.842)"/><path d="m47.587 9.798h-33.591l-13.996-9.798h62.983z" opacity=".1" transform="translate(123.184 483.626)"/><path d="m47.587 9.798h-33.591l-13.996-9.798h62.983z" opacity=".1" transform="translate(123.184 524.215)"/><path d="m47.587 9.798h-33.591l-13.996-9.798h62.983z" opacity=".1" transform="translate(123.184 581.6)"/><path d="m47.587 9.797h-33.591l-13.996-9.797h62.983z" opacity=".1" transform="translate(123.184 638.985)"/><path d="m15.396 9.797h33.591l13.996-9.797h-62.983z" opacity=".1" transform="translate(669.039 489.225)"/><path d="m15.396 9.797h33.591l13.996-9.797h-62.983z" opacity=".1" transform="translate(669.039 529.814)"/><path d="m15.396 9.797h33.591l13.996-9.797h-62.983z" opacity=".1" transform="translate(669.039 587.199)"/><path d="m15.396 9.798h33.591l13.996-9.798h-62.983z" opacity=".1" transform="translate(669.039 644.583)"/><path d="m17.2509 1.79558-4.6687 29.80752s-22.9841 12.2103-6.82346 12.5695c16.16076.3591 92.29556 0 92.29556 0s14.7247 0-8.619-12.9286l-4.6686-31.244z" fill="#3f3d56" transform="translate(515.265 351.631)"/><path d="m2.50284 43.8491c3.13881-2.5376 6.51219-4.7705 10.07446-6.6685l4.6686-29.80753 67.5158.06351 4.6687 29.38492c3.836 1.9798 7.4522 4.3593 10.7886 7.0988 2.998-.684 6.274-3.2261-10.7886-12.6763l-4.6687-31.244-67.5158 1.79564-4.6687 29.80746s-19.31334 10.2615-10.07436 12.246z" opacity=".1" transform="translate(515.27 351.631)"/><rect fill="#3f3d56" height="169.5078pt" rx="8.55584pt" width="243.344256pt" x="413.824" y="145.672"/><rect fill="#f2f2f2" height="126.9872pt" width="226.968072pt" x="424.059" y="156.984"/><circle cx="1.436504pt" cy="1.436504pt" fill="#f2f2f2" r="1.436504pt" transform="translate(564.119 150.161)"/><path d="m304.18 0v18.574c.001 5.9069-4.788 10.6956-10.694 10.6948h-282.7912c-5.90689.0008-10.69554568-4.7879-10.69479991-10.6948v-18.574z" fill="#3f3d56" transform="translate(413.824 328.288)"/><circle cx="5.458728pt" cy="5.458728pt" fill="#f2f2f2" r="5.458728pt" transform="translate(559.091 336.189)"/><path d="m193.21 12.928v3.592h-193.21v-2.873l.266-.719 4.762-12.928h184.232z" fill="#3f3d56" transform="translate(362.071 402.268)"/><path d="m54.2425 12.3657c-.3519 1.5047-1.6807 3.0921-4.683 4.5932-10.7738 5.3869-32.6805-1.4365-32.6805-1.4365s-16.879-2.873-16.879-10.41468c.473933-.32453.968142-.61841 1.4796-.87984 4.52961-2.3964 19.5483-8.3097 46.1781.25038 1.9618.61581 3.7142 1.76417 5.0618 3.31716 1.2112 1.19104 1.7776 2.89078 1.523 4.57028z" fill="#3f3d56" transform="translate(575.393 399.315)"/><path d="m52.7629 12.3657c-13.1871 5.0529-24.9413 5.43-37.0044-2.94846-6.08362-4.22333-11.61059-5.2684-15.7585-5.18936 4.52961-2.3964 19.5483-8.3097 46.1781.25038 1.9618.61581 3.7142 1.76417 5.0618 3.31716 1.2112 1.19105 1.7776 2.89078 1.523 4.57028z" opacity=".1" transform="translate(576.872 399.315)"/><ellipse cx="3.73492pt" cy="1.149208pt" fill="#f2f2f2" rx="3.73492pt" ry="1.149208pt" transform="translate(608.432 405.859)"/><path d="m193.21 0v3.592h-193.21v-2.873l.266-.719z" opacity=".1" transform="translate(362.071 415.196)"/><circle cx="30.597344pt" cy="30.597344pt" fill="#ffb9b9" r="30.597344pt" transform="translate(356.392 117.648)"/><path d="m0 5.03245v60.38945h62.4025s-8.052-50.3245-4.026-65.4219z" fill="#ffb9b9" transform="translate(366.457 169.985)"/><path d="m202.305 50.0095s-59.383-29.1882-59.383-31.2012-6.039-15.09738-10.065-15.09738-38.2468-11.07141-57.3701 5.03245l-2.013 13.08443-73.4739 48.3115 20.1298 73.4737s13.0844 14.091 9.0584 24.156c-4.0259 10.065 3.0195 61.396 3.0195 61.396l158.0193-5.032v-68.442s5.032-16.104 8.052-21.136c3.019-5.033 0-20.13 0-20.13l24.156-30.1948s-3.02-28.1817-20.13-34.2207z" fill="#d0cde1" transform="translate(287.951 206.534)"/><path d="m18.8627 24.659 4.5292-24.659s-26.16881 113.734-23.149346 126.818c3.019476 13.084 25.162246 33.214 28.181746 34.221 3.0195 1.006 31.2013-86.5587 31.2013-86.5587z" opacity=".1" transform="translate(271.605 276.674)"/><path d="m40.5022 0-17.1103 3.01947s-26.16881 113.73353-23.149346 126.81753c3.019476 13.085 25.162246 33.215 28.181746 34.221 3.0195 1.007 31.2013-86.5582 31.2013-86.5582z" fill="#d0cde1" transform="translate(264.559 273.654)"/><path d="m27.6785 16.6071 8.5552-16.6071s12.0779 113.734 4.026 124.805-39.90298 15.214-39.90298 15.214l-.35672-82.6489z" opacity=".1" transform="translate(468.113 290.764)"/><path d="m23.1493 0 13.0844 13.0844s12.0779 113.7336 4.026 124.8046c-8.0519 11.072-39.90298 15.215-39.90298 15.215l-.35672-82.6495z" fill="#d0cde1" transform="translate(474.152 277.68)"/><path d="m35.1471 2.89809s-29.18823-11.07141-34.220679 10.06491c-5.032451 21.1363 12.077879 115.747 12.077879 115.747s11.0714 71.46 18.1169 73.473c7.0454 2.013 38.2466 3.02 43.2791-6.039 5.0324-9.058-15.0974-101.6552-15.0974-101.6552l116.7531-2.013s-7.046 80.5192-11.071 87.5652c-4.026 7.045-4.026 31.201 0 31.201s48.311-2.013 51.331-8.052c3.019-6.039 20.129-141.9154 20.129-141.9154s14.091-47.3051-2.013-44.2857c-16.103 3.0195-199.2849-14.09081-199.2849-14.09081z" fill="#3f3d56" transform="translate(266.895 447.898)"/><g fill="#2f2e41"><path d="m39.2532 3.13131s10.0649-7.04544 15.0973 0c5.0325 7.04539 7.0455 15.09739-15.0973 27.17529s-39.2532 9.0584-39.2532 7.0454v-29.18823z" transform="translate(434.899 643.931)"/><path d="m18.3733 3.13131s-10.06489-7.04544-15.09735 0c-5.03246 7.04539-7.04546 15.09739 15.09735 27.17519 22.1429 12.0779 39.2532 9.0585 39.2532 7.0455v-29.18823z" transform="translate(281.656 640.912)"/><path d="m43.4891.0195022c-3.8096-.1323432-7.6126.4097008-11.2336 1.6011178-2.8078 1.12869-5.4899 2.54776-8.0027 4.2341l-16.88535 10.50018c-2.93137 1.2686-4.81172 4.1762-4.76623 7.37l-2.109995 15.8018c-.53248 3.9878-1.02331 8.2524.761795 11.8578 1.49 3.0093 4.3314 5.0686 6.66782 7.4804 3.73896 3.8758 6.25546 8.7657 7.23646 14.0609 1.208 6.5975.4346 14.5425 5.6557 18.7529 2.827 2.2797 6.6803 2.7109 10.3058 2.9229 9.9139.5788 19.8605.1959 29.7006-1.1432 1.5645-.1171 3.09-.5446 4.4875-1.2574 1.775-1.0499 2.8925-2.9031 3.9369-4.6813 3.7707-6.4198 7.657-13.249 7.6161-20.694-.0203-3.6832-.9627-7.6389.8058-10.8698.9346-1.3732 1.9488-2.6905 3.0376-3.945 2.1896-3.0768 2.6159-7.03 2.9727-10.7897 1.1398-12.0087-.0517-21.1472-8.9022-29.6063-8.2618-7.89649-20.0173-11.5227178-31.2847-11.5953978z" transform="translate(351.398 107.65)"/><path d="m33.591 0-33.591 170.755h16.795l32.192-167.955z" transform="translate(267.346 569.703)"/><path d="m0 5.599 20.995 195.948h13.996l-12.597-201.547z" transform="translate(408.708 578.101)"/><path d="m0 2.799 29.392 130.166h13.996l-27.992-132.965z" transform="translate(466.093 575.302)"/><path d="m4.199 0-4.199 103.573h11.197l8.398-103.573z" transform="translate(349.924 578.101)"/></g><path d="m3.86766 155.825s-22.39396-149.75995 40.58924-153.95883c62.9831-4.19888 152.5591 0 152.5591 0s51.787-4.19889 36.391 153.95883c0 0 13.996 46.188-111.971 41.989-125.9661-4.199-117.56834-41.989-117.56834-41.989z" fill="#6c63ff" transform="translate(273.275 395.683)"/><path d="m69.3527 59.3381c0 26.1153-15.5251 35.2338-34.6764 35.2338-19.1512 0-34.6763-9.1185-34.6763-35.2338s34.6763-59.3381 34.6763-59.3381 34.6764 33.2228 34.6764 59.3381z" fill="#2b8467" transform="translate(781.647 553.327)"/><path d="m14.293 68.721 14.779-27.039-14.724 23.61.16-9.827 10.186-19.563-10.144 16.962.287-17.675 10.908-15.574-10.863 12.795.18-32.41-1.079 41.067-11.046-16.907 10.912 20.372-1.033 19.74-.031-.524-12.785-17.863 12.746 19.714-.129 2.469-.023.037.011.203-2.622 26.342h3.503l.42-2.128 12.715-19.667-12.684 17.722z" fill="#3f3d56" transform="translate(801.123 553.327)"/><path d="m52.025 60.386h-41.341l-10.684-60.386h60.386z" fill="#2f2e41" transform="translate(786.445 644.163)"/><rect fill="#3f3d56" height="80.662072pt" width="68.8pt" x="145" y="296.3"/><rect fill="#f2f2f2" height="55.629016pt" width="47.448272pt" x="158.345" y="311.946"/><path d="m97.7028 0-18.3315 32.0781-18.3315-32.0781h-61.0398l79.3713 138.904 79.3717-138.904z" fill="#4dba87" transform="translate(485.721 165.082)"/><path d="m66.4819 0-18.4782 31.4933-18.4782-31.4933h-29.5255l48.0037 81.8196 48.0038-81.8196z" fill="#435466" transform="translate(517.678 165.082)"/><path d="m0 0h44.5455v44.5387h-44.5455z" fill="#f7df1e" transform="translate(166.25 325.593)"/><path d="m0 16.9713 3.4112-2.0577c.65887 1.1631 1.25676 2.1472 2.69306 2.1472 1.37701 0 2.24421-.5368 2.24421-2.6232v-14.194525h4.18863v14.251925c0 4.323-2.54062 6.2913-6.25331 6.2913-3.35022 0-5.294643-1.7303-6.28209626-3.8166m14.81010626-.4474 3.4095-1.9682c.8977 1.4618 2.0647 2.532 4.1294 2.532 1.736 0 2.8421-.8642 2.8421-2.0577 0-1.4314-1.1365-1.9378-3.0488-2.7734l-1.0467-.4473c-3.0217-1.2812-5.0271-2.89158-5.0271-6.29125 0-3.13128 2.3933-5.51645 6.1331-5.51645 2.6626 0 4.5731.925034 5.9535 3.3389l-3.2604 2.08808c-.7182-1.28289-1.4956-1.7893-2.6931-1.7893-1.2263 0-2.0054.7748-2.0054 1.7893 0 1.25251.7774 1.75892 2.5728 2.53203l1.0467.44732c3.5569 1.51922 5.5657 3.07047 5.5657 6.55967 0 3.7575-2.9624 5.8152-6.9444 5.8152-3.8956 0-6.4023-1.8568-7.6218-4.2639" transform="translate(177.991 345.842)"/></svg>